<?xml version="1.0" encoding="UTF-8"?>
<svg version="1.1" xmlns="http://www.w3.org/2000/svg" width="878" height="732">
<path d="M0 0 C1.08571289 0.00773437 1.08571289 0.00773437 2.19335938 0.015625 C7.50176774 0.09463387 7.50176774 0.09463387 9.8125 1.25 C12.54638931 1.39673017 15.2580847 1.48514219 17.99414062 1.53125 C18.83978073 1.54929688 19.68542084 1.56734375 20.5566864 1.5859375 C22.39603946 1.62458598 24.23543981 1.661031 26.07487488 1.69555664 C28.98252103 1.75025908 31.8899904 1.81085415 34.79748535 1.87304688 C40.96905351 2.0039995 47.14075864 2.12751966 53.3125 2.25 C60.46203445 2.39188498 67.61148044 2.53677011 74.76078796 2.68969727 C77.63135602 2.74948154 80.50199661 2.80354 83.37268066 2.85742188 C85.12541283 2.89425027 86.87813942 2.93134506 88.63085938 2.96875 C89.83563179 2.98905273 89.83563179 2.98905273 91.06474304 3.00976562 C96.58481308 3.13615654 96.58481308 3.13615654 98.8125 4.25 C100.61536332 4.39167311 102.42288953 4.47607018 104.23046875 4.53125 C105.32037109 4.56863281 106.41027344 4.60601562 107.53320312 4.64453125 C108.67724609 4.67933594 109.82128906 4.71414062 111 4.75 C128.42200757 5.28913376 128.42200757 5.28913376 135.8125 8.25 C137.48971911 8.75538174 139.17524617 9.23383802 140.8671875 9.6875 C141.81207031 9.94273438 142.75695312 10.19796875 143.73046875 10.4609375 C145.19419922 10.85152344 145.19419922 10.85152344 146.6875 11.25 C148.62249502 11.77046471 150.55739308 12.29129007 152.4921875 12.8125 C153.40637451 13.05822754 154.32056152 13.30395508 155.26245117 13.55712891 C158.45490307 14.42454666 161.63353967 15.33452662 164.8125 16.25 C166.14380115 16.59135927 167.47608148 16.92925956 168.8125 17.25 C168.8125 17.91 168.8125 18.57 168.8125 19.25 C169.60914063 19.29898438 170.40578125 19.34796875 171.2265625 19.3984375 C176.7663176 19.78932046 181.58798209 20.29080578 186.8125 22.25 C192.44185674 23.75579501 198.08975745 25.14745327 203.8125 26.25 C203.8125 26.91 203.8125 27.57 203.8125 28.25 C207.4425 28.58 211.0725 28.91 214.8125 29.25 C214.8125 29.91 214.8125 30.57 214.8125 31.25 C218.4425 31.58 222.0725 31.91 225.8125 32.25 C225.8125 32.91 225.8125 33.57 225.8125 34.25 C226.45316406 34.29898438 227.09382813 34.34796875 227.75390625 34.3984375 C228.61886719 34.47320312 229.48382812 34.54796875 230.375 34.625 C231.22191406 34.69460937 232.06882812 34.76421875 232.94140625 34.8359375 C235.63643838 35.2246088 238.13896993 35.86253739 240.74389648 36.64355469 C245.15228158 37.93594564 249.61550487 39.03661534 254.0625 40.1875 C261.66096284 42.15504899 269.24477374 44.16711405 276.8125 46.25 C276.8125 46.91 276.8125 47.57 276.8125 48.25 C277.38097656 48.28738281 277.94945312 48.32476562 278.53515625 48.36328125 C283.89685193 48.81978622 287.9794508 49.88489082 292.8125 52.25 C292.8125 52.91 292.8125 53.57 292.8125 54.25 C293.3796875 54.36601563 293.946875 54.48203125 294.53125 54.6015625 C297.05598052 55.3192085 299.02280167 56.33890321 301.3125 57.625 C302.74142578 58.41970703 302.74142578 58.41970703 304.19921875 59.23046875 C304.75270996 59.54032715 305.30620117 59.85018555 305.87646484 60.16943359 C309.94968572 62.44283531 314.03891588 64.68733267 318.125 66.9375 C318.98480469 67.41300293 319.84460938 67.88850586 320.73046875 68.37841797 C325.05042102 70.76128884 329.3780971 73.08705307 333.8125 75.25 C333.8125 75.91 333.8125 76.57 333.8125 77.25 C334.51375 77.353125 335.215 77.45625 335.9375 77.5625 C339.20387647 78.34359003 341.8596852 79.67058743 344.8125 81.25 C344.8125 81.91 344.8125 82.57 344.8125 83.25 C345.51375 83.353125 346.215 83.45625 346.9375 83.5625 C350.20387647 84.34359003 352.8596852 85.67058743 355.8125 87.25 C355.8125 87.91 355.8125 88.57 355.8125 89.25 C356.49699219 89.34152344 357.18148437 89.43304688 357.88671875 89.52734375 C361.51306363 90.42303641 364.36297308 92.00026282 367.625 93.8125 C368.22248047 94.14185547 368.81996094 94.47121094 369.43554688 94.81054688 C370.89783998 95.61773267 372.3556399 96.43304917 373.8125 97.25 C374.49923087 105.87228764 372.68528114 113.50443772 368.8125 121.25 C369.451875 121.476875 370.09125 121.70375 370.75 121.9375 C372.8125 123.25 372.8125 123.25 373.5625 125.875 C373.68625 127.050625 373.68625 127.050625 373.8125 128.25 C374.4725 128.25 375.1325 128.25 375.8125 128.25 C375.8125 128.91 375.8125 129.57 375.8125 130.25 C376.8025 130.58 377.7925 130.91 378.8125 131.25 C382.47726432 125.75285352 383.1354263 119.68220019 383.8125 113.25 C384.4725 113.25 385.1325 113.25 385.8125 113.25 C385.8125 112.59 385.8125 111.93 385.8125 111.25 C387.5625 110.5625 387.5625 110.5625 389.8125 110.25 C392.0625 111.5625 392.0625 111.5625 393.8125 113.25 C393.8125 113.91 393.8125 114.57 393.8125 115.25 C394.4725 115.25 395.1325 115.25 395.8125 115.25 C395.8125 116.24 395.8125 117.23 395.8125 118.25 C396.4725 118.25 397.1325 118.25 397.8125 118.25 C397.8125 118.91 397.8125 119.57 397.8125 120.25 C398.4725 120.25 399.1325 120.25 399.8125 120.25 C401.58639278 122.31904965 403.2409447 124.38761169 404.875 126.5625 C405.33455078 127.15740234 405.79410156 127.75230469 406.26757812 128.36523438 C408.25070869 130.97155134 409.76986686 133.12210058 410.8125 136.25 C411.4725 136.25 412.1325 136.25 412.8125 136.25 C414.1015625 137.7109375 414.1015625 137.7109375 415.4375 139.625 C416.10652344 140.56472656 416.10652344 140.56472656 416.7890625 141.5234375 C417.8125 143.25 417.8125 143.25 417.8125 145.25 C418.4725 145.25 419.1325 145.25 419.8125 145.25 C420.080625 146.054375 420.34875 146.85875 420.625 147.6875 C421.2128125 148.9559375 421.2128125 148.9559375 421.8125 150.25 C422.8025 150.58 423.7925 150.91 424.8125 151.25 C426 153.8125 426 153.8125 426.8125 156.25 C427.4725 156.25 428.1325 156.25 428.8125 156.25 C428.8125 157.24 428.8125 158.23 428.8125 159.25 C429.4725 159.25 430.1325 159.25 430.8125 159.25 C430.8125 159.91 430.8125 160.57 430.8125 161.25 C431.4725 161.25 432.1325 161.25 432.8125 161.25 C434.1015625 162.7109375 434.1015625 162.7109375 435.4375 164.625 C436.10652344 165.56472656 436.10652344 165.56472656 436.7890625 166.5234375 C437.8125 168.25 437.8125 168.25 437.8125 170.25 C438.4725 170.25 439.1325 170.25 439.8125 170.25 C439.8125 171.24 439.8125 172.23 439.8125 173.25 C440.369375 173.435625 440.92625 173.62125 441.5 173.8125 C444.42830417 175.63279719 445.79975758 177.8355761 447.6640625 180.69140625 C448.74496934 182.40572515 448.74496934 182.40572515 450.8125 183.25 C450.8125 184.24 450.8125 185.23 450.8125 186.25 C451.4725 186.25 452.1325 186.25 452.8125 186.25 C452.8125 186.91 452.8125 187.57 452.8125 188.25 C453.4725 188.25 454.1325 188.25 454.8125 188.25 C456.1015625 189.7109375 456.1015625 189.7109375 457.4375 191.625 C458.10652344 192.56472656 458.10652344 192.56472656 458.7890625 193.5234375 C459.8125 195.25 459.8125 195.25 459.8125 197.25 C460.4725 197.25 461.1325 197.25 461.8125 197.25 C461.8125 197.91 461.8125 198.57 461.8125 199.25 C462.4725 199.25 463.1325 199.25 463.8125 199.25 C463.8125 200.24 463.8125 201.23 463.8125 202.25 C464.4725 202.25 465.1325 202.25 465.8125 202.25 C468.8125 205.71153846 468.8125 205.71153846 468.8125 208.25 C469.4725 208.25 470.1325 208.25 470.8125 208.25 C470.8125 209.24 470.8125 210.23 470.8125 211.25 C471.4725 211.25 472.1325 211.25 472.8125 211.25 C474.5390625 213.1484375 474.5390625 213.1484375 476.4375 215.625 C477.06914063 216.43710937 477.70078125 217.24921875 478.3515625 218.0859375 C479.8125 220.25 479.8125 220.25 479.8125 222.25 C480.4725 222.25 481.1325 222.25 481.8125 222.25 C485.8125 226.72058824 485.8125 226.72058824 485.8125 229.25 C486.4725 229.25 487.1325 229.25 487.8125 229.25 C488.82601664 230.90848177 489.82370795 232.57665961 490.8125 234.25 C491.534375 234.971875 492.25625 235.69375 493 236.4375 C493.598125 237.035625 494.19625 237.63375 494.8125 238.25 C494.8125 238.91 494.8125 239.57 494.8125 240.25 C495.4725 240.25 496.1325 240.25 496.8125 240.25 C496.8125 241.24 496.8125 242.23 496.8125 243.25 C497.8025 243.58 498.7925 243.91 499.8125 244.25 C501 246.8125 501 246.8125 501.8125 249.25 C502.4725 249.25 503.1325 249.25 503.8125 249.25 C505.37682787 250.94274284 506.86578572 252.70569852 508.3125 254.5 C509.50359375 255.96179688 509.50359375 255.96179688 510.71875 257.453125 C513.71774362 261.45924335 514.8125 263.18162834 514.8125 268.25 C514.1525 268.25 513.4925 268.25 512.8125 268.25 C512.4825 269.24 512.1525 270.23 511.8125 271.25 C506.72895857 269.39255217 503.83491851 267.96497287 500.8125 263.25 C500.8125 262.59 500.8125 261.93 500.8125 261.25 C500.1525 261.25 499.4925 261.25 498.8125 261.25 C498.8125 260.59 498.8125 259.93 498.8125 259.25 C497.9153125 258.816875 497.9153125 258.816875 497 258.375 C494.8125 257.25 494.8125 257.25 491.8125 255.25 C491.8125 254.59 491.8125 253.93 491.8125 253.25 C491.1525 253.25 490.4925 253.25 489.8125 253.25 C489.8125 252.59 489.8125 251.93 489.8125 251.25 C489.28785156 251.03601563 488.76320313 250.82203125 488.22265625 250.6015625 C484.85668227 248.71399849 482.12242043 246.17295056 479.25 243.625 C473.94568514 238.9779559 468.55425797 234.75373671 462.7265625 230.7734375 C462.09492187 230.27070313 461.46328125 229.76796875 460.8125 229.25 C460.8125 228.59 460.8125 227.93 460.8125 227.25 C460.0390625 226.9096875 460.0390625 226.9096875 459.25 226.5625 C455.88846873 224.7524447 452.88338856 222.51003596 449.8125 220.25 C450.1425 220.58 450.4725 220.91 450.8125 221.25 C450.8125 221.91 450.8125 222.57 450.8125 223.25 C451.4725 223.25 452.1325 223.25 452.8125 223.25 C452.8125 224.24 452.8125 225.23 452.8125 226.25 C453.4725 226.25 454.1325 226.25 454.8125 226.25 C454.8125 226.91 454.8125 227.57 454.8125 228.25 C455.4725 228.25 456.1325 228.25 456.8125 228.25 C457.1425 229.24 457.4725 230.23 457.8125 231.25 C458.4725 231.58 459.1325 231.91 459.8125 232.25 C459.8125 233.24 459.8125 234.23 459.8125 235.25 C460.4725 235.25 461.1325 235.25 461.8125 235.25 C461.8125 235.91 461.8125 236.57 461.8125 237.25 C462.410625 237.29125 463.00875 237.3325 463.625 237.375 C465.8125 238.25 465.8125 238.25 467.5625 241.1875 C468.8125 244.25 468.8125 244.25 468.8125 246.25 C469.4725 246.25 470.1325 246.25 470.8125 246.25 C470.8125 247.24 470.8125 248.23 470.8125 249.25 C471.39 249.270625 471.9675 249.29125 472.5625 249.3125 C475.62574879 250.58885366 476.3885087 252.68278365 477.86328125 255.5390625 C478.78201898 257.38009923 478.78201898 257.38009923 480.5625 259 C481.8125 260.25 481.8125 260.25 481.8125 263.25 C483.1325 263.58 484.4525 263.91 485.8125 264.25 C485.8125 264.91 485.8125 265.57 485.8125 266.25 C486.5859375 266.5903125 486.5859375 266.5903125 487.375 266.9375 C490.70797005 268.73217618 493.95953671 270.74965015 496.8125 273.25 C496.8125 273.91 496.8125 274.57 496.8125 275.25 C497.616875 275.33121094 497.616875 275.33121094 498.4375 275.4140625 C501.92428157 276.64131786 504.20187707 279.1048442 506.8125 281.625 C510.83987585 285.48717465 510.83987585 285.48717465 515.1875 288.9765625 C515.991875 289.60691406 515.991875 289.60691406 516.8125 290.25 C516.8125 290.91 516.8125 291.57 516.8125 292.25 C517.369375 292.3325 517.92625 292.415 518.5 292.5 C521.54927919 293.48895541 523.46439963 295.09757466 525.8125 297.25 C525.8125 297.91 525.8125 298.57 525.8125 299.25 C526.59625 299.559375 527.38 299.86875 528.1875 300.1875 C530.8125 301.25 530.8125 301.25 532.8125 302.25 C533.76317299 305.53414305 533.91352197 306.94693408 532.8125 310.25 C530.484375 311.3125 530.484375 311.3125 527.5625 312.25 C524.49963623 313.24336122 521.94329738 314.16854534 519.203125 315.875 C516.8125 317.25 516.8125 317.25 512.8125 317.25 C512.544375 318.054375 512.27625 318.85875 512 319.6875 C511.608125 320.533125 511.21625 321.37875 510.8125 322.25 C509.8225 322.58 508.8325 322.91 507.8125 323.25 C507.8125 323.91 507.8125 324.57 507.8125 325.25 C506.4925 325.58 505.1725 325.91 503.8125 326.25 C503.8125 326.91 503.8125 327.57 503.8125 328.25 C502.1625 328.58 500.5125 328.91 498.8125 329.25 C498.8125 329.91 498.8125 330.57 498.8125 331.25 C496.16021188 332.32525194 493.52881546 333.34456151 490.8125 334.25 C490.8125 334.91 490.8125 335.57 490.8125 336.25 C489.3562455 336.92119549 487.89742133 337.58681807 486.4375 338.25 C485.62539063 338.62125 484.81328125 338.9925 483.9765625 339.375 C481.8125 340.25 481.8125 340.25 479.8125 340.25 C479.4825 341.24 479.1525 342.23 478.8125 343.25 C477.4925 343.25 476.1725 343.25 474.8125 343.25 C474.8125 343.91 474.8125 344.57 474.8125 345.25 C472.8325 345.58 470.8525 345.91 468.8125 346.25 C468.4825 347.24 468.1525 348.23 467.8125 349.25 C467.1525 349.25 466.4925 349.25 465.8125 349.25 C465.8125 349.91 465.8125 350.57 465.8125 351.25 C463.8325 351.58 461.8525 351.91 459.8125 352.25 C459.8125 352.91 459.8125 353.57 459.8125 354.25 C458.1625 354.58 456.5125 354.91 454.8125 355.25 C455.1425 356.24 455.4725 357.23 455.8125 358.25 C454.8225 358.58 453.8325 358.91 452.8125 359.25 C451.42673077 360.87332967 450.08608732 362.53724465 448.8125 364.25 C453.49969399 362.2874657 453.49969399 362.2874657 458.0625 360.0625 C459.8125 359.25 459.8125 359.25 462.8125 359.25 C462.8125 358.59 462.8125 357.93 462.8125 357.25 C465.1225 356.92 467.4325 356.59 469.8125 356.25 C469.8125 355.59 469.8125 354.93 469.8125 354.25 C470.5653125 353.9096875 471.318125 353.569375 472.09375 353.21875 C480.48041362 349.39182582 488.73007706 345.3376225 496.95800781 341.18310547 C499.54873817 339.87955473 502.15032175 338.59809431 504.75 337.3125 C508.22981825 335.58925211 511.65507141 333.7961311 515.05078125 331.9140625 C515.79658447 331.50534912 516.5423877 331.09663574 517.31079102 330.67553711 C518.77180518 329.8722407 520.22715446 329.05852025 521.67553711 328.23266602 C526.46598295 325.60993526 530.35640205 324.62311881 535.8125 324.25 C536.1425 325.9 536.4725 327.55 536.8125 329.25 C536.1525 329.25 535.4925 329.25 534.8125 329.25 C534.8125 329.91 534.8125 330.57 534.8125 331.25 C530.96306923 334.74948252 526.50123048 337.56342707 521.94140625 340.0390625 C517.76930304 342.41218543 513.75057383 345.06155296 509.703125 347.640625 C506.8125 349.25 506.8125 349.25 503.8125 349.25 C503.8125 349.91 503.8125 350.57 503.8125 351.25 C497.0625 355.25 497.0625 355.25 494.8125 355.25 C494.8125 355.91 494.8125 356.57 494.8125 357.25 C492.38116946 358.88863397 489.96478465 360.39921334 487.4375 361.875 C486.73882813 362.29523438 486.04015625 362.71546875 485.3203125 363.1484375 C480.08390828 366.25 480.08390828 366.25 477.8125 366.25 C477.8125 366.91 477.8125 367.57 477.8125 368.25 C477.09964844 368.63671875 476.38679687 369.0234375 475.65234375 369.421875 C469.15973836 372.94989405 469.15973836 372.94989405 462.75 376.625 C459.8125 378.25 459.8125 378.25 457.8125 378.25 C457.8125 378.91 457.8125 379.57 457.8125 380.25 C452.51838235 384.25 452.51838235 384.25 448.8125 384.25 C448.8125 384.91 448.8125 385.57 448.8125 386.25 C447.4925 386.58 446.1725 386.91 444.8125 387.25 C444.8125 387.91 444.8125 388.57 444.8125 389.25 C444.008125 389.62125 443.20375 389.9925 442.375 390.375 C438.6774671 392.21500453 435.33086044 394.51675297 431.91796875 396.83203125 C429.59783694 398.394569 427.22844609 399.84069811 424.8125 401.25 C423.925625 401.806875 423.03875 402.36375 422.125 402.9375 C419.8125 404.25 419.8125 404.25 417.8125 404.25 C417.8125 404.91 417.8125 405.57 417.8125 406.25 C416.4925 406.58 415.1725 406.91 413.8125 407.25 C413.8125 407.91 413.8125 408.57 413.8125 409.25 C412.1625 409.58 410.5125 409.91 408.8125 410.25 C408.8125 410.91 408.8125 411.57 408.8125 412.25 C407.87148438 412.78109375 406.93046875 413.3121875 405.9609375 413.859375 C404.70305828 414.57279904 403.44524953 415.28634735 402.1875 416 C401.57003906 416.34804688 400.95257812 416.69609375 400.31640625 417.0546875 C397.28862553 418.77574181 394.34486215 420.53832907 391.4765625 422.515625 C388.8125 424.25 388.8125 424.25 386.8125 424.25 C386.8125 424.91 386.8125 425.57 386.8125 426.25 C385.20776367 427.45507813 385.20776367 427.45507813 382.98046875 428.78125 C381.78260742 429.50248047 381.78260742 429.50248047 380.56054688 430.23828125 C379.71556641 430.73714844 378.87058594 431.23601562 378 431.75 C376.34744586 432.73923195 374.69509397 433.72880187 373.04296875 434.71875 C372.30457764 435.15638672 371.56618652 435.59402344 370.80541992 436.04492188 C369.11305773 437.06825885 367.45804819 438.15296787 365.8125 439.25 C364.8225 439.25 363.8325 439.25 362.8125 439.25 C362.8125 439.91 362.8125 440.57 362.8125 441.25 C361.4925 441.58 360.1725 441.91 358.8125 442.25 C358.8125 442.91 358.8125 443.57 358.8125 444.25 C357.1625 444.58 355.5125 444.91 353.8125 445.25 C353.8125 445.91 353.8125 446.57 353.8125 447.25 C352.45125 447.9925 352.45125 447.9925 351.0625 448.75 C346.34163155 451.41999937 341.9339422 454.54625593 337.484375 457.640625 C334.8125 459.25 334.8125 459.25 331.8125 459.25 C331.8125 459.91 331.8125 460.57 331.8125 461.25 C330.4925 461.58 329.1725 461.91 327.8125 462.25 C327.8125 462.91 327.8125 463.57 327.8125 464.25 C326.1625 464.58 324.5125 464.91 322.8125 465.25 C322.8125 465.91 322.8125 466.57 322.8125 467.25 C321.4925 467.58 320.1725 467.91 318.8125 468.25 C318.8125 468.91 318.8125 469.57 318.8125 470.25 C317.1625 470.58 315.5125 470.91 313.8125 471.25 C313.8125 471.91 313.8125 472.57 313.8125 473.25 C311.80078125 474.72265625 311.80078125 474.72265625 309.125 476.3125 C308.25488281 476.83972656 307.38476562 477.36695313 306.48828125 477.91015625 C303.8781694 479.21711737 301.68640743 479.83056486 298.8125 480.25 C298.8125 480.91 298.8125 481.57 298.8125 482.25 C296.98890081 483.61327318 295.10106809 484.89119089 293.1875 486.125 C292.14335938 486.80304688 291.09921875 487.48109375 290.0234375 488.1796875 C288.96382812 488.86289062 287.90421875 489.54609375 286.8125 490.25 C285.22308594 491.33667969 285.22308594 491.33667969 283.6015625 492.4453125 C280.8125 494.25 280.8125 494.25 277.8125 495.25 C277.4825 495.91 277.1525 496.57 276.8125 497.25 C275.03543916 498.35103609 273.21570915 499.38403304 271.375 500.375 C270.38628906 500.91382813 269.39757812 501.45265625 268.37890625 502.0078125 C265.8125 503.25 265.8125 503.25 263.8125 503.25 C263.8125 503.91 263.8125 504.57 263.8125 505.25 C262.1625 505.58 260.5125 505.91 258.8125 506.25 C258.8125 506.91 258.8125 507.57 258.8125 508.25 C257.4925 508.58 256.1725 508.91 254.8125 509.25 C254.8125 509.91 254.8125 510.57 254.8125 511.25 C253.1625 511.58 251.5125 511.91 249.8125 512.25 C249.8125 512.91 249.8125 513.57 249.8125 514.25 C248.4925 514.58 247.1725 514.91 245.8125 515.25 C245.8125 515.91 245.8125 516.57 245.8125 517.25 C241.03730323 521.09950851 235.53669378 523.98718665 230.15234375 526.8828125 C226.58090205 528.96963153 223.29202321 531.42635495 219.9765625 533.89453125 C217.8125 535.25 217.8125 535.25 214.8125 535.25 C214.8125 535.91 214.8125 536.57 214.8125 537.25 C208.0625 541.25 208.0625 541.25 205.8125 541.25 C205.8125 541.91 205.8125 542.57 205.8125 543.25 C204.06696445 544.38669755 202.26238474 545.43312389 200.4375 546.4375 C195.36288689 549.29871803 190.64176592 552.393579 185.96875 555.8671875 C183.8670263 557.21503205 182.25254961 557.81744575 179.8125 558.25 C179.8125 558.91 179.8125 559.57 179.8125 560.25 C178.1625 560.58 176.5125 560.91 174.8125 561.25 C174.8125 561.91 174.8125 562.57 174.8125 563.25 C172.9765625 564.51171875 172.9765625 564.51171875 170.4375 565.9375 C165.6917741 568.67541879 161.26487469 571.69778939 156.84375 574.9296875 C154.8125 576.25 154.8125 576.25 152.8125 576.25 C152.8125 576.91 152.8125 577.57 152.8125 578.25 C151.4925 578.25 150.1725 578.25 148.8125 578.25 C148.8125 578.91 148.8125 579.57 148.8125 580.25 C147.4925 580.58 146.1725 580.91 144.8125 581.25 C144.8125 581.91 144.8125 582.57 144.8125 583.25 C143.1625 583.58 141.5125 583.91 139.8125 584.25 C139.8125 584.91 139.8125 585.57 139.8125 586.25 C133.0625 590.25 133.0625 590.25 130.8125 590.25 C130.8125 590.91 130.8125 591.57 130.8125 592.25 C128.73046875 593.72265625 128.73046875 593.72265625 126 595.3125 C124.66001953 596.10333984 124.66001953 596.10333984 123.29296875 596.91015625 C120.8125 598.25 120.8125 598.25 117.8125 599.25 C117.8125 599.91 117.8125 600.57 117.8125 601.25 C116.1625 601.58 114.5125 601.91 112.8125 602.25 C112.8125 602.91 112.8125 603.57 112.8125 604.25 C111.046875 605.51171875 111.046875 605.51171875 108.5625 606.9375 C107.20705078 607.72447266 107.20705078 607.72447266 105.82421875 608.52734375 C104.83035156 609.09582031 103.83648437 609.66429687 102.8125 610.25 C100.66582316 611.49855086 98.51998335 612.74854199 96.375 614 C95.38628906 614.57234375 94.39757812 615.1446875 93.37890625 615.734375 C91.48927261 616.85032303 89.63847703 618.03268198 87.8125 619.25 C86.8225 619.25 85.8325 619.25 84.8125 619.25 C84.8125 619.91 84.8125 620.57 84.8125 621.25 C79.64853085 623.50096091 75.20478251 623.69271695 69.8125 622.25 C67.25 620.3125 67.25 620.3125 65.8125 618.25 C65.8125 617.59 65.8125 616.93 65.8125 616.25 C64.141875 617.178125 64.141875 617.178125 62.4375 618.125 C61.49777344 618.64707031 61.49777344 618.64707031 60.5390625 619.1796875 C58.6512386 620.25897274 58.6512386 620.25897274 56.8125 622.25 C55.8225 622.25 54.8325 622.25 53.8125 622.25 C53.8125 622.91 53.8125 623.57 53.8125 624.25 C51.91951421 625.4679676 49.9709964 626.60029558 48 627.6875 C43.7732504 629.95049694 43.7732504 629.95049694 40.11328125 632.97265625 C38.8125 634.25 38.8125 634.25 35.8125 634.25 C35.8125 634.91 35.8125 635.57 35.8125 636.25 C32.01324012 639.12822718 28.56826838 640.16353148 23.8125 640.25 C21.375 638.3125 21.375 638.3125 19.8125 636.25 C20.4725 635.59 21.1325 634.93 21.8125 634.25 C22.8025 634.25 23.7925 634.25 24.8125 634.25 C24.8125 630.29 24.8125 626.33 24.8125 622.25 C24.4825 623.57 24.1525 624.89 23.8125 626.25 C22.4925 626.25 21.1725 626.25 19.8125 626.25 C19.4825 623.94 19.1525 621.63 18.8125 619.25 C18.83344727 619.86520508 18.85439453 620.48041016 18.87597656 621.11425781 C18.95927017 623.90933809 19.01120013 626.70415715 19.0625 629.5 C19.09601563 630.46808594 19.12953125 631.43617188 19.1640625 632.43359375 C19.26301806 639.60787157 19.26301806 639.60787157 16.9296875 642.93359375 C14.8125 644.25 14.8125 644.25 12.6875 644.0625 C11.37908365 643.49551958 10.08793566 642.88771783 8.8125 642.25 C8.8125 641.59 8.8125 640.93 8.8125 640.25 C8.1525 640.25 7.4925 640.25 6.8125 640.25 C6.8125 638.93 6.8125 637.61 6.8125 636.25 C6.1525 636.25 5.4925 636.25 4.8125 636.25 C3.55585022 633.34399739 2.8125 631.45395416 2.8125 628.25 C2.1525 628.25 1.4925 628.25 0.8125 628.25 C0.4825 626.27 0.1525 624.29 -0.1875 622.25 C-0.8475 622.25 -1.5075 622.25 -2.1875 622.25 C-2.1875 621.26 -2.1875 620.27 -2.1875 619.25 C-2.8475 619.25 -3.5075 619.25 -4.1875 619.25 C-4.1875 618.26 -4.1875 617.27 -4.1875 616.25 C-4.8475 616.25 -5.5075 616.25 -6.1875 616.25 C-6.1875 615.26 -6.1875 614.27 -6.1875 613.25 C-6.8475 613.25 -7.5075 613.25 -8.1875 613.25 C-11.1875 607.625 -11.1875 607.625 -11.1875 604.25 C-11.8475 604.25 -12.5075 604.25 -13.1875 604.25 C-13.1875 603.26 -13.1875 602.27 -13.1875 601.25 C-13.8475 601.25 -14.5075 601.25 -15.1875 601.25 C-15.1875 600.26 -15.1875 599.27 -15.1875 598.25 C-15.8475 598.25 -16.5075 598.25 -17.1875 598.25 C-18.17164433 596.33588443 -19.14963349 594.4186033 -20.125 592.5 C-20.67027344 591.43265625 -21.21554687 590.3653125 -21.77734375 589.265625 C-22.89966275 586.86554115 -23.69251659 584.83143248 -24.1875 582.25 C-24.8475 582.25 -25.5075 582.25 -26.1875 582.25 C-27.6481285 579.60261084 -28.1875 578.35551666 -28.1875 575.25 C-28.8475 575.25 -29.5075 575.25 -30.1875 575.25 C-33.1875 569.625 -33.1875 569.625 -33.1875 566.25 C-33.8475 566.25 -34.5075 566.25 -35.1875 566.25 C-35.1875 565.26 -35.1875 564.27 -35.1875 563.25 C-35.8475 563.25 -36.5075 563.25 -37.1875 563.25 C-37.1875 562.26 -37.1875 561.27 -37.1875 560.25 C-37.8475 560.25 -38.5075 560.25 -39.1875 560.25 C-40.02819415 558.64967863 -40.85981505 557.04458829 -41.6875 555.4375 C-42.1515625 554.54417969 -42.615625 553.65085937 -43.09375 552.73046875 C-44.1875 550.25 -44.1875 550.25 -44.1875 547.25 C-44.8475 547.25 -45.5075 547.25 -46.1875 547.25 C-46.1875 546.26 -46.1875 545.27 -46.1875 544.25 C-46.8475 544.25 -47.5075 544.25 -48.1875 544.25 C-49.02864171 542.81705502 -49.86015687 541.37845595 -50.6875 539.9375 C-51.1515625 539.13699219 -51.615625 538.33648438 -52.09375 537.51171875 C-53.1875 535.25 -53.1875 535.25 -53.1875 532.25 C-53.8475 532.25 -54.5075 532.25 -55.1875 532.25 C-56.6481285 529.60261084 -57.1875 528.35551666 -57.1875 525.25 C-57.8475 525.25 -58.5075 525.25 -59.1875 525.25 C-59.1875 524.26 -59.1875 523.27 -59.1875 522.25 C-59.8475 522.25 -60.5075 522.25 -61.1875 522.25 C-62.02819415 520.64967863 -62.85981505 519.04458829 -63.6875 517.4375 C-64.1515625 516.54417969 -64.615625 515.65085937 -65.09375 514.73046875 C-66.1875 512.25 -66.1875 512.25 -66.1875 509.25 C-66.8475 509.25 -67.5075 509.25 -68.1875 509.25 C-68.1875 508.26 -68.1875 507.27 -68.1875 506.25 C-68.8475 506.25 -69.5075 506.25 -70.1875 506.25 C-70.1875 505.26 -70.1875 504.27 -70.1875 503.25 C-70.8475 503.25 -71.5075 503.25 -72.1875 503.25 C-75.1875 497.625 -75.1875 497.625 -75.1875 494.25 C-75.8475 494.25 -76.5075 494.25 -77.1875 494.25 C-77.1875 493.26 -77.1875 492.27 -77.1875 491.25 C-77.8475 491.25 -78.5075 491.25 -79.1875 491.25 C-79.1875 490.26 -79.1875 489.27 -79.1875 488.25 C-79.8475 488.25 -80.5075 488.25 -81.1875 488.25 C-81.1875 487.26 -81.1875 486.27 -81.1875 485.25 C-81.8475 485.25 -82.5075 485.25 -83.1875 485.25 C-83.55101562 484.49976563 -83.91453125 483.74953125 -84.2890625 482.9765625 C-88.15518433 475.10553498 -92.3220022 467.5482467 -97.1875 460.25 C-97.1875 459.26 -97.1875 458.27 -97.1875 457.25 C-97.8475 457.25 -98.5075 457.25 -99.1875 457.25 C-99.1875 455.93 -99.1875 454.61 -99.1875 453.25 C-99.8475 453.25 -100.5075 453.25 -101.1875 453.25 C-102.9140625 450.73046875 -102.9140625 450.73046875 -104.8125 447.4375 C-105.44414062 446.35855469 -106.07578125 445.27960938 -106.7265625 444.16796875 C-108.1875 441.25 -108.1875 441.25 -108.1875 438.25 C-108.8475 438.25 -109.5075 438.25 -110.1875 438.25 C-110.1875 437.26 -110.1875 436.27 -110.1875 435.25 C-110.8475 435.25 -111.5075 435.25 -112.1875 435.25 C-113.17164433 433.33588443 -114.14963349 431.4186033 -115.125 429.5 C-115.67027344 428.43265625 -116.21554688 427.3653125 -116.77734375 426.265625 C-117.89966275 423.86554115 -118.69251659 421.83143248 -119.1875 419.25 C-119.8475 419.25 -120.5075 419.25 -121.1875 419.25 C-121.1875 418.26 -121.1875 417.27 -121.1875 416.25 C-121.8475 416.25 -122.5075 416.25 -123.1875 416.25 C-123.1875 415.26 -123.1875 414.27 -123.1875 413.25 C-123.8475 413.25 -124.5075 413.25 -125.1875 413.25 C-128.1875 407.625 -128.1875 407.625 -128.1875 404.25 C-128.8475 404.25 -129.5075 404.25 -130.1875 404.25 C-130.50203125 403.68152344 -130.8165625 403.11304688 -131.140625 402.52734375 C-131.56859375 401.75519531 -131.9965625 400.98304688 -132.4375 400.1875 C-132.88996094 399.36765625 -133.34242188 398.5478125 -133.80859375 397.703125 C-134.65316438 396.20060275 -135.51623043 394.7080674 -136.41015625 393.234375 C-138.46397553 389.84814967 -139.1875 388.3283793 -139.1875 384.25 C-139.8475 384.25 -140.5075 384.25 -141.1875 384.25 C-141.1875 383.59 -141.1875 382.93 -141.1875 382.25 C-141.8475 382.25 -142.5075 382.25 -143.1875 382.25 C-143.1875 380.93 -143.1875 379.61 -143.1875 378.25 C-143.8475 378.25 -144.5075 378.25 -145.1875 378.25 C-145.1875 377.26 -145.1875 376.27 -145.1875 375.25 C-145.8475 375.25 -146.5075 375.25 -147.1875 375.25 C-150.1875 369.625 -150.1875 369.625 -150.1875 366.25 C-150.8475 366.25 -151.5075 366.25 -152.1875 366.25 C-152.1875 365.26 -152.1875 364.27 -152.1875 363.25 C-152.8475 363.25 -153.5075 363.25 -154.1875 363.25 C-154.1875 362.26 -154.1875 361.27 -154.1875 360.25 C-154.8475 360.25 -155.5075 360.25 -156.1875 360.25 C-157.02569158 358.62750059 -157.8579116 357.00191503 -158.6875 355.375 C-159.38359375 354.01761719 -159.38359375 354.01761719 -160.09375 352.6328125 C-161.1875 350.25 -161.1875 350.25 -161.1875 348.25 C-161.8475 348.25 -162.5075 348.25 -163.1875 348.25 C-164.0625 346.64583333 -164.9375 345.04166667 -165.8125 343.4375 C-166.63427734 341.93509766 -166.63427734 341.93509766 -167.47265625 340.40234375 C-168.5733963 338.37888767 -169.66533978 336.35060732 -170.74609375 334.31640625 C-172.94241505 330.20329544 -175.11257576 326.20068272 -177.875 322.4375 C-183.1875 315.11486486 -183.1875 315.11486486 -183.1875 310.25 C-183.8475 310.25 -184.5075 310.25 -185.1875 310.25 C-189.1875 303.625 -189.1875 303.625 -189.1875 300.25 C-189.8475 300.25 -190.5075 300.25 -191.1875 300.25 C-194.1875 294.625 -194.1875 294.625 -194.1875 291.25 C-194.8475 291.25 -195.5075 291.25 -196.1875 291.25 C-196.69410156 290.32767578 -196.69410156 290.32767578 -197.2109375 289.38671875 C-197.87996094 288.17435547 -197.87996094 288.17435547 -198.5625 286.9375 C-199.00335938 286.13699219 -199.44421875 285.33648437 -199.8984375 284.51171875 C-200.92263335 282.71472057 -202.04017138 280.97099292 -203.1875 279.25 C-203.1875 278.26 -203.1875 277.27 -203.1875 276.25 C-203.8475 276.25 -204.5075 276.25 -205.1875 276.25 C-205.1875 275.26 -205.1875 274.27 -205.1875 273.25 C-205.8475 273.25 -206.5075 273.25 -207.1875 273.25 C-208.35904293 270.96070947 -209.52488074 268.66881638 -210.6875 266.375 C-211.02136719 265.72402344 -211.35523438 265.07304687 -211.69921875 264.40234375 C-214.1875 259.4765625 -214.1875 259.4765625 -214.1875 257.25 C-214.8475 257.25 -215.5075 257.25 -216.1875 257.25 C-216.1875 255.93 -216.1875 254.61 -216.1875 253.25 C-216.8475 253.25 -217.5075 253.25 -218.1875 253.25 C-220.1875 250.25 -220.1875 250.25 -220.1875 247.25 C-220.8475 247.25 -221.5075 247.25 -222.1875 247.25 C-225.1875 241.625 -225.1875 241.625 -225.1875 238.25 C-225.8475 238.25 -226.5075 238.25 -227.1875 238.25 C-227.1875 237.26 -227.1875 236.27 -227.1875 235.25 C-227.8475 235.25 -228.5075 235.25 -229.1875 235.25 C-229.1875 234.26 -229.1875 233.27 -229.1875 232.25 C-229.8475 232.25 -230.5075 232.25 -231.1875 232.25 C-232.02864171 230.81705502 -232.86015687 229.37845595 -233.6875 227.9375 C-234.1515625 227.13699219 -234.615625 226.33648437 -235.09375 225.51171875 C-236.1875 223.25 -236.1875 223.25 -236.1875 220.25 C-236.8475 220.25 -237.5075 220.25 -238.1875 220.25 C-239.25389644 218.62501495 -240.23460343 216.94403834 -241.1875 215.25 C-241.60644531 214.65703125 -242.02539062 214.0640625 -242.45703125 213.453125 C-245.9360461 208.4401353 -247.03261082 204.33292061 -247.1875 198.25 C-247.8475 198.25 -248.5075 198.25 -249.1875 198.25 C-249.1875 194.29 -249.1875 190.33 -249.1875 186.25 C-249.8475 186.25 -250.5075 186.25 -251.1875 186.25 C-251.1875 182.29 -251.1875 178.33 -251.1875 174.25 C-251.8475 174.25 -252.5075 174.25 -253.1875 174.25 C-253.24808594 173.26257813 -253.30867188 172.27515625 -253.37109375 171.2578125 C-253.45488281 169.97648438 -253.53867188 168.69515625 -253.625 167.375 C-253.70621094 166.09882813 -253.78742188 164.82265625 -253.87109375 163.5078125 C-253.97956027 160.36699848 -253.97956027 160.36699848 -255.1875 158.25 C-255.58488096 155.31170137 -255.93695079 152.38480036 -256.25 149.4375 C-256.34087891 148.62990234 -256.43175781 147.82230469 -256.52539062 146.99023438 C-256.8820173 143.7162406 -257.18786916 140.53462199 -257.18359375 137.23828125 C-256.95364142 135.24861984 -256.95364142 135.24861984 -258.1875 134.25 C-258.51196337 131.14957227 -258.70084441 128.0479275 -258.90625 124.9375 C-258.89357799 122.33403248 -258.89357799 122.33403248 -260.1875 121.25 C-260.39895071 119.17073471 -260.55654772 117.0858828 -260.6875 115 C-260.94141469 110.99177532 -261.30317191 107.17052118 -262.1875 103.25 C-261.5275 103.25 -260.8675 103.25 -260.1875 103.25 C-260.1875 102.59 -260.1875 101.93 -260.1875 101.25 C-255.57142895 99.17747831 -251.09539134 97.54642413 -246.1875 96.25 C-245.548125 96.04375 -244.90875 95.8375 -244.25 95.625 C-240.90124413 95.0161353 -237.58604178 95.19335764 -234.1875 95.25 C-234.1875 94.59 -234.1875 93.93 -234.1875 93.25 C-233.53523438 93.12882812 -232.88296875 93.00765625 -232.2109375 92.8828125 C-231.33695313 92.71523437 -230.46296875 92.54765625 -229.5625 92.375 C-228.70398438 92.21257812 -227.84546875 92.05015625 -226.9609375 91.8828125 C-224.15262904 91.28974626 -224.15262904 91.28974626 -221.359375 90.3046875 C-216.9491071 88.83821911 -212.45544503 87.81201278 -207.93359375 86.75 C-205.1347497 86.07277498 -202.5271497 85.42041657 -199.9453125 84.125 C-198.1875 83.25 -198.1875 83.25 -194.1875 83.25 C-194.1875 82.59 -194.1875 81.93 -194.1875 81.25 C-189.7325 80.755 -189.7325 80.755 -185.1875 80.25 C-185.1875 79.59 -185.1875 78.93 -185.1875 78.25 C-180.7325 77.755 -180.7325 77.755 -176.1875 77.25 C-176.1875 76.59 -176.1875 75.93 -176.1875 75.25 C-159.81856796 69.25 -159.81856796 69.25 -156.1875 69.25 C-156.1875 68.59 -156.1875 67.93 -156.1875 67.25 C-155.62160156 67.12882812 -155.05570312 67.00765625 -154.47265625 66.8828125 C-153.73917969 66.71523437 -153.00570312 66.54765625 -152.25 66.375 C-151.51910156 66.21257812 -150.78820312 66.05015625 -150.03515625 65.8828125 C-147.98049706 65.42038477 -147.98049706 65.42038477 -147.1875 63.25 C-144.625 62.625 -144.625 62.625 -142.1875 62.25 C-142.6825 60.27 -142.6825 60.27 -143.1875 58.25 C-139.37260326 56.78273202 -136.89738378 57.81663581 -133.1875 59.25 C-133.1875 57.6 -133.1875 55.95 -133.1875 54.25 C-136.60406024 54.08322718 -136.60406024 54.08322718 -140.1875 54.25 C-141.1775 55.24 -141.1775 55.24 -142.1875 56.25 C-149.35618395 58.74304625 -156.61647097 60.64431768 -164.1875 61.25 C-164.5175 62.24 -164.8475 63.23 -165.1875 64.25 C-168.10935504 66.17842433 -170.61333767 66.51020661 -174.0625 66.6875 C-177.34480517 66.94989358 -179.09830541 67.20346369 -182.0625 68.75 C-189.79123467 72.45979264 -199.76734731 71.39917593 -208.1875 71.25 C-208.5175 69.93 -208.8475 68.61 -209.1875 67.25 C-206.52968879 65.89602071 -203.86533302 64.56357424 -201.1875 63.25 C-200.30835938 62.81816406 -199.42921875 62.38632813 -198.5234375 61.94140625 C-193.44419362 59.53055387 -188.71505645 57.65188343 -183.16015625 56.70703125 C-181.11114764 56.31355598 -181.11114764 56.31355598 -179.10546875 55.20703125 C-176.6973793 54.00543875 -174.84244563 54.10250302 -172.1875 54.25 C-172.1875 53.59 -172.1875 52.93 -172.1875 52.25 C-171.1253125 51.92386719 -170.063125 51.59773438 -168.96875 51.26171875 C-166.05271433 50.36171626 -163.13827989 49.4568514 -160.2265625 48.54296875 C-159.21650146 48.22622192 -159.21650146 48.22622192 -158.18603516 47.90307617 C-155.52015573 47.03192696 -152.89365359 46.07444153 -150.28125 45.0546875 C-146.1859938 43.48076441 -142.03950575 42.04470397 -137.90625 40.57421875 C-135.46734987 39.70574486 -133.02979624 38.83347832 -130.59375 37.95703125 C-123.99616733 35.5851127 -117.38491964 33.29300495 -110.7109375 31.14453125 C-108.2031358 30.31766827 -108.2031358 30.31766827 -106.0234375 29.14453125 C-103.66414602 27.99500412 -101.77637721 28.10617349 -99.1875 28.25 C-99.1875 27.59 -99.1875 26.93 -99.1875 26.25 C-98.14851562 25.93546875 -97.10953125 25.6209375 -96.0390625 25.296875 C-86.72212126 22.46250485 -86.72212126 22.46250485 -77.625 19 C-73.76665151 17.38092991 -70.35136385 16.61207512 -66.1875 16.25 C-66.1875 15.59 -66.1875 14.93 -66.1875 14.25 C-65.35347656 14.00765625 -64.51945313 13.7653125 -63.66015625 13.515625 C-57.60591263 11.71252839 -51.78584272 9.82616895 -46.08984375 7.08203125 C-44.08383928 6.20466174 -42.36223765 5.54317389 -40.1875 5.25 C-39.1975 5.91 -38.2075 6.57 -37.1875 7.25 C-37.75052958 11.19120709 -38.8666945 14.0008723 -41.1875 17.25 C-41.8475 17.25 -42.5075 17.25 -43.1875 17.25 C-43.8475 18.57 -44.5075 19.89 -45.1875 21.25 C-45.8475 21.25 -46.5075 21.25 -47.1875 21.25 C-47.455625 21.8275 -47.72375 22.405 -48 23 C-49.20469859 25.2825868 -50.59548115 27.2237942 -52.1875 29.25 C-51.1975 28.755 -51.1975 28.755 -50.1875 28.25 C-48.83635301 28.09574643 -47.48120801 27.97545985 -46.125 27.875 C-41.27562285 27.3798448 -36.62297339 26.31922754 -32.1875 24.25 C-31.8575 23.59 -31.5275 22.93 -31.1875 22.25 C-30.5275 22.25 -29.8675 22.25 -29.1875 22.25 C-29.1875 21.59 -29.1875 20.93 -29.1875 20.25 C-27.8125 18.625 -27.8125 18.625 -26.1875 17.25 C-25.5275 17.25 -24.8675 17.25 -24.1875 17.25 C-24.1875 16.59 -24.1875 15.93 -24.1875 15.25 C-23.5275 15.25 -22.8675 15.25 -22.1875 15.25 C-21.8471875 14.445625 -21.8471875 14.445625 -21.5 13.625 C-19.73179911 10.42539839 -17.65079797 7.95962777 -15.1875 5.25 C-14.5275 5.25 -13.8675 5.25 -13.1875 5.25 C-13.1875 4.59 -13.1875 3.93 -13.1875 3.25 C-9.04474617 -0.10327029 -5.10885749 -0.14794881 0 0 Z M-86.1875 40.25 C-88.76398542 40.6174728 -91.31286129 40.75369229 -93.91015625 40.90625 C-96.38219659 41.04893062 -96.38219659 41.04893062 -98.1875 43.25 C-100.52083333 43.58333333 -102.85416667 43.91666667 -105.1875 44.25 C-105.8475 44.91 -106.5075 45.57 -107.1875 46.25 C-109.84287372 46.81520003 -112.47894713 46.98788198 -115.1875 47.25 C-115.5175 48.24 -115.8475 49.23 -116.1875 50.25 C-110.9075 49.59 -105.6275 48.93 -100.1875 48.25 C-100.1875 47.26 -100.1875 46.27 -100.1875 45.25 C-99.53265625 45.15203125 -98.8778125 45.0540625 -98.203125 44.953125 C-90.90926334 43.75808552 -84.13653646 41.74825744 -77.1875 39.25 C-77.1875 38.92 -77.1875 38.59 -77.1875 38.25 C-81.9772321 38.01571687 -81.9772321 38.01571687 -86.1875 40.25 Z M289.8125 463.25 C289.8125 463.91 289.8125 464.57 289.8125 465.25 C290.8025 464.92 291.7925 464.59 292.8125 464.25 C291.8225 463.92 290.8325 463.59 289.8125 463.25 Z M287.8125 465.25 C286.8225 465.745 286.8225 465.745 285.8125 466.25 C285.8125 466.91 285.8125 467.57 285.8125 468.25 C284.8225 468.745 284.8225 468.745 283.8125 469.25 C284.8025 469.25 285.7925 469.25 286.8125 469.25 C286.8125 468.59 286.8125 467.93 286.8125 467.25 C287.8025 466.92 288.7925 466.59 289.8125 466.25 C289.1525 465.92 288.4925 465.59 287.8125 465.25 Z M281.8125 469.25 C280.8225 470.735 280.8225 470.735 279.8125 472.25 C280.8025 472.25 281.7925 472.25 282.8125 472.25 C283.1425 471.26 283.4725 470.27 283.8125 469.25 C283.1525 469.25 282.4925 469.25 281.8125 469.25 Z M276.8125 473.25 C270.10272887 475.75681041 264.3323498 479.76807068 258.8125 484.25 C257.90757812 484.95382812 257.90757812 484.95382812 256.984375 485.671875 C255.54987227 486.81143324 254.17424877 488.02442611 252.8125 489.25 C252.8125 489.91 252.8125 490.57 252.8125 491.25 C251.8225 491.58 250.8325 491.91 249.8125 492.25 C250.4725 492.58 251.1325 492.91 251.8125 493.25 C253.84394641 492.31553465 255.84783587 491.31775224 257.8125 490.25 C257.8125 489.59 257.8125 488.93 257.8125 488.25 C258.37839844 487.99347656 258.94429687 487.73695313 259.52734375 487.47265625 C262.91185146 485.66179999 265.71853331 483.21997973 268.69140625 480.80859375 C270.8125 479.25 270.8125 479.25 273.8125 478.25 C273.8125 477.59 273.8125 476.93 273.8125 476.25 C275.4625 475.59 277.1125 474.93 278.8125 474.25 C278.1525 473.92 277.4925 473.59 276.8125 473.25 Z " fill="#272525" transform="translate(301.1875,42.75)"/>
<path d="M0 0 C8.49067923 -0.23869379 16.78916829 0.5819133 25.21658325 1.48046875 C29.65739616 1.95292866 34.10007205 2.40698712 38.54296875 2.859375 C39.47560043 2.95440308 40.40823212 3.04943115 41.36912537 3.14733887 C51.92383622 4.21136702 62.4923903 5.10481589 73.0625 6 C86.82683306 7.17048152 100.57482209 8.42460032 114.3125 9.875 C131.77752609 11.71625387 149.2592558 13.3658479 166.74605942 14.98435211 C168.91237041 15.18517047 171.07858805 15.38696825 173.24478149 15.58905029 C193.15191883 17.48018208 193.15191883 17.48018208 213.10375977 18.7824707 C215.82171225 18.98660926 218.33375907 19.45682363 221 20 C223.07548773 20.19901458 225.15430184 20.36445364 227.234375 20.5078125 C228.57278792 20.60459258 229.9111646 20.70187477 231.24951172 20.79956055 C231.97652283 20.85187836 232.70353394 20.90419617 233.45257568 20.95809937 C254.95813134 22.52041019 276.41422063 24.61348629 297.875 26.6875 C298.71572556 26.76870338 299.55645111 26.84990677 300.4226532 26.93357086 C310.94894369 27.95050557 321.47472577 28.97260055 332 30 C329.1204213 32.9153279 326.4040448 35.60370413 322.98828125 37.875 C322.23981934 38.37845947 321.49135742 38.88191895 320.72021484 39.40063477 C319.528396 40.19232056 319.528396 40.19232056 318.3125 41 C311.75534904 45.41883964 305.26899391 49.91047305 298.875 54.5625 C291.0020748 60.28491055 283.07021899 65.9175228 275.10888672 71.51611328 C271.56958833 74.00648786 268.03504816 76.50359792 264.5 79 C263.08335588 80.00003195 261.66668922 81.00003196 260.25 82 C259.54875 82.495 258.8475 82.99 258.125 83.5 C210.66666667 117 163.20833333 150.5 115.75 184 C114.6976416 184.74286255 114.6976416 184.74286255 113.62402344 185.50073242 C112.21066613 186.49836774 110.79725487 187.49592662 109.38378906 188.4934082 C105.79103769 191.02895646 102.19930153 193.56592224 98.609375 196.10546875 C92.19628772 200.64035073 85.77832833 205.1655378 79.3125 209.625 C74.96712578 212.62218024 70.66002484 215.66745566 66.375 218.75 C60.83132749 222.73676958 55.21032524 226.59999792 49.5625 230.4375 C43.20419491 234.76220519 36.94506897 239.18682121 30.76928711 243.76757812 C23.95406853 248.80715989 16.99367845 253.63610834 10.0390625 258.48046875 C6.70977121 260.80043611 3.3923248 263.13578735 0.0859375 265.48828125 C-0.68766113 266.03814697 -1.46125977 266.5880127 -2.25830078 267.15454102 C-3.71398077 268.19057551 -5.1681724 269.2287056 -6.62060547 270.26928711 C-7.27174316 270.73214111 -7.92288086 271.19499512 -8.59375 271.671875 C-9.15771484 272.0750293 -9.72167969 272.47818359 -10.30273438 272.89355469 C-12.13875267 274.09045269 -14.03452926 275.03398665 -16 276 C-16.19586197 260.73799002 -15.60470974 245.62111307 -14.63891602 230.39208984 C-14.49220982 228.00296323 -14.34606769 225.61380193 -14.20043945 223.22460938 C-13.8074337 216.80346248 -13.40652394 210.38283201 -13.00399518 203.96227598 C-12.62454381 197.90087682 -12.2521316 191.83904317 -11.87896275 185.77725466 C-11.13988986 173.77517081 -10.39487524 161.77346355 -9.64624023 149.77197266 C-8.92168223 138.15632373 -8.20075446 126.54045761 -7.48413086 114.92431641 C-7.43989133 114.20722611 -7.3956518 113.49013582 -7.35007168 112.75131552 C-7.17219066 109.86787533 -6.99431509 106.9844348 -6.81645146 104.10099354 C-6.08893924 92.30866018 -5.35844531 80.51651129 -4.62758899 68.72438478 C-4.46170873 66.04775405 -4.29596141 63.37111514 -4.13033032 60.69446898 C-3.6584662 53.07018726 -3.18507665 45.44600367 -2.70912933 37.82197571 C-2.5654893 35.51743004 -2.42237542 33.2128515 -2.27983665 30.90823746 C-2.08461475 27.7536208 -1.88741447 24.5991337 -1.68971252 21.44467163 C-1.63426114 20.54164602 -1.57880976 19.6386204 -1.52167803 18.70823038 C-1.12712676 12.46067403 -0.59442384 6.23161084 0 0 Z " fill="#F26739" transform="translate(347,402)"/>
<path d="M0 0 C10.2293678 4.93416565 20.09736116 10.44898661 30 16 C34.16102963 18.33077964 38.323633 20.65867102 42.48898315 22.98171997 C44.28509755 23.98469805 46.0792031 24.99120553 47.87329102 25.99780273 C48.98373779 26.61727783 50.09418457 27.23675293 51.23828125 27.875 C52.22868408 28.42929687 53.21908691 28.98359375 54.23950195 29.5546875 C56.78339643 30.88659299 59.31443716 31.99011807 62 33 C62 33.66 62 34.32 62 35 C62.85972412 35.25974609 63.71944824 35.51949219 64.60522461 35.78710938 C68.0968064 37.03458714 71.09275312 38.57931056 74.31640625 40.40625 C74.89535141 40.73161743 75.47429657 41.05698486 76.07078552 41.39221191 C77.90416165 42.42326092 79.73359124 43.46105038 81.5625 44.5 C83.39538316 45.53819136 85.22910963 46.57479193 87.06492615 47.60778809 C88.72833792 48.54417363 90.38879112 49.48580915 92.04907227 50.42773438 C94.65990941 51.81879843 97.23091495 52.96875012 100 54 C100 54.66 100 55.32 100 56 C100.85972412 56.25974609 101.71944824 56.51949219 102.60522461 56.78710938 C106.0968064 58.03458714 109.09275312 59.57931056 112.31640625 61.40625 C112.89535141 61.73161743 113.47429657 62.05698486 114.07078552 62.39221191 C115.90416165 63.42326092 117.73359124 64.46105038 119.5625 65.5 C121.39538316 66.53819136 123.22910963 67.57479193 125.06492615 68.60778809 C126.72833792 69.54417363 128.38879112 70.48580915 130.04907227 71.42773438 C132.65990941 72.81879843 135.23091495 73.96875012 138 75 C138 75.66 138 76.32 138 77 C139.11375 77.185625 139.11375 77.185625 140.25 77.375 C142.80141485 77.95486701 144.7267573 78.73708739 147 80 C147 80.66 147 81.32 147 82 C148.06976074 82.16193848 148.06976074 82.16193848 149.16113281 82.32714844 C152.28171947 83.06677149 154.61484679 84.22033684 157.421875 85.765625 C158.44796875 86.32636719 159.4740625 86.88710938 160.53125 87.46484375 C161.5934375 88.05394531 162.655625 88.64304687 163.75 89.25 C164.79671875 89.82363281 165.8434375 90.39726562 166.921875 90.98828125 C169.95222805 92.65118749 172.97721676 94.32337912 176 96 C176.91458984 96.50724609 177.82917969 97.01449219 178.77148438 97.53710938 C180.84833508 98.6901925 182.92457612 99.84435128 185 101 C185 101.66 185 102.32 185 103 C186.06976074 103.16193848 186.06976074 103.16193848 187.16113281 103.32714844 C190.28171947 104.06677149 192.61484679 105.22033684 195.421875 106.765625 C196.44796875 107.32636719 197.4740625 107.88710938 198.53125 108.46484375 C199.5934375 109.05394531 200.655625 109.64304687 201.75 110.25 C202.79671875 110.82363281 203.8434375 111.39726562 204.921875 111.98828125 C207.95222805 113.65118749 210.97721676 115.32337912 214 117 C214.91458984 117.50724609 215.82917969 118.01449219 216.77148438 118.53710938 C218.84833508 119.6901925 220.92457612 120.84435128 223 122 C223 122.66 223 123.32 223 124 C224.06976074 124.16193848 224.06976074 124.16193848 225.16113281 124.32714844 C228.28171947 125.06677149 230.61484679 126.22033684 233.421875 127.765625 C234.44796875 128.32636719 235.4740625 128.88710938 236.53125 129.46484375 C237.5934375 130.05394531 238.655625 130.64304687 239.75 131.25 C240.79671875 131.82363281 241.8434375 132.39726562 242.921875 132.98828125 C245.95222805 134.65118749 248.97721676 136.32337912 252 138 C252.91458984 138.50724609 253.82917969 139.01449219 254.77148438 139.53710938 C256.84833508 140.6901925 258.92457612 141.84435128 261 143 C261 143.66 261 144.32 261 145 C262.11375 145.185625 262.11375 145.185625 263.25 145.375 C265.82930049 145.96120466 267.7482162 146.63284555 270 148 C274.53465042 157.06930084 270.27205886 174.85329414 269.625 184.6875 C269.43571687 187.61394203 269.24749487 190.54045082 269.05944538 193.46697235 C268.92665833 195.53159874 268.79357952 197.5962064 268.66012096 199.66078949 C268.10748463 208.23882411 267.58004783 216.81826646 267.06176758 225.3984375 C267.01880896 226.10846967 266.97585035 226.81850184 266.93158996 227.55005014 C266.03735285 242.33073387 265.15653199 257.11220808 264.28057408 271.89398599 C264.11432027 274.69916606 263.94794067 277.50433867 263.78157037 280.30951184 C263.38615564 286.9767554 262.99097764 293.64401296 262.59594727 300.3112793 C262.1986624 307.01650738 261.80091715 313.72170804 261.40294325 320.42689526 C261.05469373 326.29467224 260.70679258 332.16246982 260.35911882 338.03028095 C260.14513793 341.64154923 259.93101304 345.25280884 259.71654129 348.864048 C258.82902914 363.8098309 257.95204982 378.75600679 257.11279297 393.70458984 C256.97482265 396.14918602 256.83683782 398.59378138 256.69883728 401.03837585 C256.44444172 405.54793887 256.19471613 410.05772692 255.94776917 414.56770325 C255.83570264 416.56231582 255.72348393 418.55691986 255.61108398 420.55151367 C255.53976289 421.89148564 255.53976289 421.89148564 255.46700096 423.25852776 C255.23803857 427.25852116 254.94559806 431.09016371 254 435 C251.37670139 432.62431115 249.76594369 430.10945747 248.0234375 427.0390625 C247.44392334 426.02505371 246.86440918 425.01104492 246.26733398 423.96630859 C245.64286377 422.86367676 245.01839355 421.76104492 244.375 420.625 C243.02184404 418.2538839 241.66506889 415.88484341 240.30859375 413.515625 C239.95722855 412.90089325 239.60586334 412.2861615 239.24385071 411.65280151 C235.35947163 404.86354939 231.40083187 398.11836114 227.4375 391.375 C225.99845181 388.92462364 224.55976798 386.47403343 223.12109375 384.0234375 C222.77087158 383.42701447 222.42064941 382.83059143 222.05981445 382.21609497 C218.69493965 376.48414989 215.34609737 370.7429199 212 365 C206.84745254 356.15835052 201.67774258 347.32690639 196.5 338.5 C190.75570165 328.70724127 185.02504083 318.90670978 179.30859375 309.09765625 C175.08101471 301.84625075 170.8394756 294.60312411 166.5927124 287.36294556 C146.90216696 253.79289175 146.90216696 253.79289175 137.50048828 237.44799805 C131.07810008 226.28280742 124.56654783 215.17588651 117.98095703 204.10620117 C112.79193877 195.37074517 107.70492932 186.57995063 102.64453125 177.76953125 C98.15953416 169.97485078 93.59797206 162.22850623 89 154.5 C83.13177472 144.63638729 77.36079919 134.72185459 71.64453125 124.76953125 C67.15953332 116.97484932 62.59788417 109.22855959 58 101.5 C52.08899847 91.56215553 46.26491901 81.57841413 40.50170898 71.55419922 C36.38458465 64.39374767 32.23487767 57.25337911 28.0625 50.125 C24.25607184 43.62019235 20.47629298 37.10124276 16.7421875 30.5546875 C16.38299728 29.92499054 16.02380707 29.29529358 15.6537323 28.64651489 C13.90485931 25.57872881 12.15882898 22.50935917 10.41625977 19.43798828 C7.70477806 14.67143443 4.99333245 9.9309513 2.03515625 5.3125 C0 2 0 2 0 0 Z " fill="#F6883C" transform="translate(61,250)"/>
<path d="M0 0 C1.25151855 0.02499573 2.50303711 0.04999146 3.79248047 0.07574463 C7.22401313 0.15356198 10.65040829 0.26799198 14.07998586 0.40108109 C17.6998499 0.5347279 21.32081123 0.62732521 24.9417572 0.72631836 C31.04684185 0.8998569 37.15009847 1.1070952 43.25341797 1.33398438 C50.22989926 1.59290236 57.20632675 1.79834407 64.1853705 1.97375202 C70.96212734 2.14552895 77.73704154 2.35873454 84.51205254 2.5887146 C87.35991051 2.68463494 90.20761881 2.76692527 93.05623055 2.83682251 C113.10760223 3.34818904 130.52905782 6.55194165 149.57006836 12.66796875 C151.32295692 13.21080338 153.07650951 13.75150205 154.83094788 14.28930664 C157.33178452 15.05847223 159.8204334 15.84881755 162.30834961 16.66015625 C166.03021723 17.81014649 169.78581579 18.75236423 173.57006836 19.66796875 C191.4399956 24.06775507 209.17309778 28.75004064 226.81005859 34.00415039 C230.89407729 35.20990829 234.95708268 36.23412378 239.12475586 37.08984375 C243.25371614 38.06601966 247.29963377 39.34249256 251.3581543 40.57470703 C255.65752572 41.86303655 259.96426309 43.02984216 264.32788086 44.08203125 C275.31828945 46.74773264 285.01668362 49.47018748 294.57006836 55.66796875 C294.57006836 56.32796875 294.57006836 56.98796875 294.57006836 57.66796875 C295.23393555 57.74917969 295.89780273 57.83039063 296.58178711 57.9140625 C300.55338318 58.91604687 303.81591395 60.75430329 307.38256836 62.73046875 C308.07543945 63.10751953 308.76831055 63.48457031 309.48217773 63.87304688 C311.18135821 64.79880727 312.87616261 65.73259187 314.57006836 66.66796875 C314.57006836 67.32796875 314.57006836 67.98796875 314.57006836 68.66796875 C315.28437012 68.7772168 315.99867188 68.88646484 316.73461914 68.99902344 C319.82753664 69.72871122 322.14779757 70.85402854 324.93725586 72.37109375 C325.97769043 72.9336084 327.018125 73.49612305 328.09008789 74.07568359 C329.19723145 74.6836377 330.304375 75.2915918 331.44506836 75.91796875 C332.58443848 76.53752441 333.72380859 77.15708008 334.89770508 77.79541016 C346.19702811 83.95145506 357.39957954 90.28162145 368.57006836 96.66796875 C367.22203286 104.17518571 365.30664052 111.42355531 363.13256836 118.73046875 C362.83286133 119.75462891 362.5331543 120.77878906 362.22436523 121.83398438 C360.4602339 127.8228467 358.56243887 133.75159929 356.57006836 139.66796875 C328.90255738 140.74393742 301.23979398 141.26148681 273.55432129 141.61468506 C269.56760469 141.6680017 265.5810649 141.72901695 261.59448242 141.79150391 C255.13010074 141.89018516 248.66595971 141.95970627 242.20101929 142.00900269 C239.77337032 142.03132806 237.34578244 142.06226089 234.91836548 142.10256958 C221.39206449 142.31891572 209.33894355 141.797105 196.49369812 137.32695007 C193.17547574 136.19022064 189.80853114 135.224336 186.44506836 134.23046875 C185.68105713 134.00174072 184.9170459 133.7730127 184.12988281 133.53735352 C176.98787945 131.44111954 169.76379034 129.68618867 162.53808594 127.90527344 C151.12672775 125.08450872 139.69371616 122.20383201 128.5859375 118.33251953 C125.29983832 117.24922512 121.93028616 116.48420313 118.57006836 115.66796875 C104.27999526 112.19489959 90.12368021 108.4486216 76.02319336 104.26953125 C69.24097178 102.26302625 62.41428343 100.45120096 55.57006836 98.66796875 C52.95598466 97.98167539 50.34905777 97.28342271 47.74975586 96.54296875 C45.19824155 95.84083213 42.65215924 95.21368322 40.07788086 94.60546875 C27.61430147 91.48070716 18.79251201 86.35870155 8.7878418 78.40576172 C5.13338954 75.5422224 1.34783343 72.86532002 -2.42993164 70.16796875 C-3.92666499 69.08812555 -5.42275858 68.00739506 -6.91821289 66.92578125 C-9.95619582 64.73157251 -12.99538158 62.53904336 -16.03540039 60.34765625 C-25.53322441 53.49886462 -34.99920244 46.60887417 -44.42993164 39.66796875 C-43.85338754 36.26783689 -42.81995503 34.7412639 -40.30493164 32.41796875 C-37.15834245 29.40514144 -34.28888366 26.26965676 -31.44946289 22.96875 C-27.66452363 18.65670121 -23.71082794 14.49353402 -19.78443813 10.31037903 C-18.35675014 8.67737897 -18.35675014 8.67737897 -17.28624821 6.63627625 C-12.92792005 -0.7556081 -8.03330438 -0.3659613 0 0 Z " fill="#F4783B" transform="translate(304.429931640625,45.33203125)"/>
<path d="M0 0 C3.74888398 1.24962799 4.64619319 2.77896986 7.0625 5.875 C10.25774361 9.88329587 13.51929973 13.73150392 17 17.5 C21.09351091 21.94727112 24.92442499 26.54717463 28.71875 31.25 C31.06718968 34.08099578 33.50909902 36.79383598 36 39.5 C40.11378909 43.9698512 43.97087297 48.59044893 47.78515625 53.31640625 C49.95632827 55.94708557 52.20241357 58.47942424 54.5 61 C57.59555196 64.39598682 60.55151207 67.86171531 63.4375 71.4375 C67.29825137 76.211403 71.37437075 80.73388428 75.53125 85.25 C78.72881296 88.81184229 81.71388343 92.52565833 84.71875 96.25 C87.06718968 99.08099578 89.50909902 101.79383598 92 104.5 C96.09351091 108.94727112 99.92442499 113.54717463 103.71875 118.25 C106.06718968 121.08099578 108.50909902 123.79383598 111 126.5 C115.09351091 130.94727112 118.92442499 135.54717463 122.71875 140.25 C125.06718968 143.08099578 127.50909902 145.79383598 130 148.5 C134.11378909 152.9698512 137.97087297 157.59044893 141.78515625 162.31640625 C143.95632827 164.94708557 146.20241357 167.47942424 148.5 170 C152.44835362 174.33355885 156.16624747 178.81758254 159.84765625 183.37890625 C162.40033983 186.48752818 165.06722912 189.47695512 167.78515625 192.44140625 C169 194 169 194 169 196 C161.47920736 196.12354673 154.10931651 195.79028526 146.625 195.0625 C145.18833984 194.93198242 145.18833984 194.93198242 143.72265625 194.79882812 C136.65551886 194.13536251 136.65551886 194.13536251 133.55737305 193.49560547 C130.74985688 192.95152358 128.02138532 192.72238951 125.16796875 192.53515625 C124.04753174 192.45837646 122.92709473 192.38159668 121.77270508 192.30249023 C119.99802856 192.18369507 119.99802856 192.18369507 118.1875 192.0625 C109.27505883 191.43952078 100.46544193 190.6394319 91.61328125 189.43359375 C88.49917761 189.05990131 85.40570982 188.79770576 82.27416992 188.62524414 C81.52369385 188.58391357 80.77321777 188.54258301 80 188.5 C78.7752597 188.43301407 77.55051941 188.36602814 76.28866577 188.29701233 C72.53457547 188.06085809 68.83558441 187.62909979 65.10717773 187.12255859 C53.532721 185.61576952 41.90567345 184.61655224 30.28515625 183.5390625 C27.78305349 183.3051211 25.28097367 183.07093417 22.77891541 182.83651733 C16.87149069 182.28354609 10.96387487 181.73265198 5.05614799 181.18292081 C-6.01278822 180.15285051 -17.08129813 179.11821152 -28.14976883 178.08315277 C-30.69053723 177.84567033 -33.2313265 177.60841096 -35.77213669 177.37137604 C-48.29474097 176.20307382 -60.8164085 175.02816302 -73.33251953 173.79199219 C-74.2789523 173.69865538 -75.22538507 173.60531857 -76.20049763 173.50915337 C-80.4919566 173.085213 -84.78301646 172.65777123 -89.07347107 172.2237854 C-97.53127206 171.37683365 -105.97578116 170.69824129 -114.46318054 170.22535706 C-120.08158414 169.8673668 -125.66031469 169.22195961 -131.25 168.5625 C-133.57411574 168.29597522 -135.8983359 168.0303595 -138.22265625 167.765625 C-139.92446045 167.57129883 -139.92446045 167.57129883 -141.66064453 167.37304688 C-149.43239264 166.5048475 -157.21651645 165.75438552 -165 165 C-159.94044604 158.83749829 -154.37581637 153.22304595 -148.73291016 147.60253906 C-147.13198611 146.00696278 -145.53646316 144.4061266 -143.94140625 142.8046875 C-142.90136199 141.76530437 -141.86100739 140.72623167 -140.8203125 139.6875 C-139.43223389 138.30111328 -139.43223389 138.30111328 -138.01611328 136.88671875 C-135.92835577 134.84627309 -133.76738585 132.93725196 -131.54199219 131.04858398 C-125.58079175 125.87396438 -120.10206405 120.1951788 -114.54794693 114.59254646 C-112.47443276 112.50149418 -110.39726687 110.41413269 -108.31906128 108.32774353 C-102.41673149 102.40107169 -96.52023887 96.46861634 -90.62792969 90.53198242 C-87.01139625 86.8887518 -83.39007534 83.25033805 -79.76571274 79.61489677 C-78.38666083 78.22962349 -77.00951099 76.84245404 -75.63428116 75.45338631 C-73.72177002 73.52177604 -71.80328584 71.59629634 -69.88330078 69.67211914 C-69.31396317 69.09401993 -68.74462555 68.51592072 -68.15803528 67.92030334 C-64.22789929 64 -64.22789929 64 -62 64 C-62 63.34 -62 62.68 -62 62 C-61.34 62 -60.68 62 -60 62 C-59.6767424 61.18876678 -59.6767424 61.18876678 -59.34695435 60.36114502 C-57.5251144 57.16754879 -55.04475553 54.78282336 -52.44873047 52.22167969 C-51.88273132 51.65538849 -51.31673218 51.08909729 -50.73358154 50.50564575 C-48.8661528 48.63960762 -46.99174538 46.78074904 -45.1171875 44.921875 C-43.81923589 43.62765446 -42.52172584 42.33299095 -41.22463989 41.03790283 C-37.81285164 37.63374354 -34.39509948 34.23563366 -30.97607422 30.83874512 C-27.4869408 27.37008593 -24.00347613 23.89574417 -20.51953125 20.421875 C-13.68522632 13.60900698 -6.84460797 6.8025158 0 0 Z " fill="#F4773A" transform="translate(517,217)"/>
<path d="M0 0 C1.55151678 10.85887409 2.68424102 21.71052788 3.62890625 32.63671875 C3.78060157 34.36079154 3.93262493 36.0848355 4.08494568 37.80885315 C4.41080493 41.50371356 4.73467085 45.19874082 5.05688477 48.8939209 C5.83722216 57.84255698 6.62672297 66.79038724 7.4153862 75.73829269 C7.69400481 78.90058714 7.97220013 82.06291865 8.25039673 85.22525024 C9.65215397 101.14323494 11.08416922 117.05837801 12.52734375 132.97265625 C12.73672356 135.28403 12.94607937 137.59540592 13.15541077 139.90678406 C13.97177099 148.91835685 14.7881332 157.92992731 15.6098938 166.94100952 C16.0906352 172.21279714 16.56892656 177.48480157 17.04545784 182.75697136 C17.22158218 184.70007042 17.39866824 186.64308258 17.57678032 188.58600044 C17.82057214 191.24624497 18.06106625 193.90676828 18.30078125 196.56738281 C18.40819059 197.72584481 18.40819059 197.72584481 18.51776981 198.90771008 C18.87845631 202.95268227 19.07176143 206.93916509 19 211 C12.99578031 209.37427274 7.9630892 206.28220147 2.625 203.1875 C-6.79389419 197.79136944 -16.28339381 192.54861696 -25.84130859 187.40307617 C-31.58501764 184.31087981 -37.30742085 181.18544819 -43 178 C-43 177.34 -43 176.68 -43 176 C-43.7233252 175.88624023 -44.44665039 175.77248047 -45.19189453 175.65527344 C-48.13060389 174.96952349 -50.28887708 173.96349823 -52.9296875 172.515625 C-53.87924316 171.9985498 -54.82879883 171.48147461 -55.80712891 170.94873047 C-56.81952637 170.38814941 -57.83192383 169.82756836 -58.875 169.25 C-59.92478027 168.67523926 -60.97456055 168.10047852 -62.05615234 167.50830078 C-70.58363744 162.82397417 -79.06152077 158.05063507 -87.51123047 153.22753906 C-91.95541608 150.69416945 -96.39070178 148.22042605 -101 146 C-101 145.34 -101 144.68 -101 144 C-101.55486084 143.89042969 -102.10972168 143.78085937 -102.68139648 143.66796875 C-105.41084437 142.88163945 -107.61592146 141.69499614 -110.09765625 140.3125 C-111.06380859 139.77882813 -112.02996094 139.24515625 -113.02539062 138.6953125 C-114.52875977 137.85613281 -114.52875977 137.85613281 -116.0625 137 C-118.05216648 135.89363837 -120.04300078 134.78937357 -122.03515625 133.6875 C-122.9156665 133.19636719 -123.79617676 132.70523438 -124.70336914 132.19921875 C-127.05753627 130.89260133 -127.05753627 130.89260133 -130 130 C-130 129.34 -130 128.68 -130 128 C-131.16982422 127.67708984 -131.16982422 127.67708984 -132.36328125 127.34765625 C-137.26282375 125.53203631 -141.6470097 123.00529357 -146.1875 120.4375 C-147.97140643 119.43397294 -149.75651166 118.43257311 -151.54296875 117.43359375 C-152.32696045 116.99072021 -153.11095215 116.54784668 -153.91870117 116.09155273 C-156.09515557 114.87907431 -156.09515557 114.87907431 -159 114 C-159 113.34 -159 112.68 -159 112 C-160.16982422 111.67708984 -160.16982422 111.67708984 -161.36328125 111.34765625 C-166.26282375 109.53203631 -170.6470097 107.00529357 -175.1875 104.4375 C-176.97140643 103.43397294 -178.75651166 102.43257311 -180.54296875 101.43359375 C-181.7189563 100.76928345 -181.7189563 100.76928345 -182.91870117 100.09155273 C-185.09515557 98.87907431 -185.09515557 98.87907431 -188 98 C-188 97.34 -188 96.68 -188 96 C-188.86189941 95.73880371 -189.72379883 95.47760742 -190.61181641 95.20849609 C-194.06182842 93.97794706 -197.02408099 92.46435001 -200.2109375 90.6640625 C-200.78276764 90.34343842 -201.35459778 90.02281433 -201.9437561 89.69247437 C-203.75694976 88.67483005 -205.5661481 87.65033851 -207.375 86.625 C-218.06602706 80.58438582 -218.06602706 80.58438582 -229 75 C-228 73 -228 73 -226.12818909 72.18380737 C-225.30415085 71.91673981 -224.48011261 71.64967224 -223.63110352 71.37451172 C-222.21851509 70.91066071 -222.21851509 70.91066071 -220.77738953 70.43743896 C-219.73839005 70.10488098 -218.69939056 69.772323 -217.62890625 69.4296875 C-216.54652176 69.07682678 -215.46413727 68.72396606 -214.34895325 68.3604126 C-210.75581248 67.19124895 -207.15922399 66.03308909 -203.5625 64.875 C-201.04294742 64.0576962 -198.52358108 63.23981805 -196.00439453 62.42138672 C-179.13508583 56.94637778 -162.24226333 51.5440828 -145.34402466 46.15911865 C-127.04936316 40.32870138 -108.80078388 34.36180879 -90.56110382 28.36223984 C-69.5608584 21.45497895 -48.53112531 14.64517216 -27.46679688 7.93554688 C-25.99373077 7.46623497 -25.99373077 7.46623497 -24.49090576 6.98744202 C-22.68941765 6.41383614 -20.88772089 5.84088486 -19.08575439 5.26878357 C-17.87686554 4.88424767 -17.87686554 4.88424767 -16.64355469 4.49194336 C-15.87507202 4.24773651 -15.10658936 4.00352966 -14.31481934 3.75192261 C-11.16793723 2.72972111 -8.04336275 1.64425381 -4.92169189 0.54762268 C-3 0 -3 0 0 0 Z " fill="#F6873C" transform="translate(314,166)"/>
<path d="M0 0 C6.02053311 0.62901092 11.70704818 1.79614793 17.5625 3.3125 C18.44381592 3.53687744 19.32513184 3.76125488 20.2331543 3.99243164 C26.4524102 5.58211705 32.65836846 7.22056259 38.85546875 8.89453125 C42.18565711 9.78972503 45.52345346 10.65321003 48.86328125 11.51171875 C49.89606201 11.77799072 50.92884277 12.0442627 51.99291992 12.31860352 C54.04318581 12.84647227 56.09410795 13.37180022 58.14575195 13.89428711 C59.56247192 14.25985718 59.56247192 14.25985718 61.0078125 14.6328125 C61.84973145 14.84824707 62.69165039 15.06368164 63.55908203 15.28564453 C66 16 66 16 68.47094727 16.99707031 C71.11279576 18.04473067 73.69512197 18.74811082 76.45703125 19.4140625 C77.51100098 19.6709082 78.5649707 19.92775391 79.65087891 20.19238281 C80.75608887 20.45889648 81.86129883 20.72541016 83 21 C85.2333753 21.54824882 87.46644381 22.09774876 89.69921875 22.6484375 C90.83584961 22.92872803 91.97248047 23.20901855 93.14355469 23.49780273 C102.5352474 25.82243431 111.88056022 28.17307214 121.12988281 31.01513672 C129.35533131 33.48915067 137.71648102 35.46376978 146.05310059 37.52243042 C156.75562724 40.16630754 167.40796182 42.94007786 178 46 C173.32556482 51.62266842 168.32418085 56.79219922 163.12890625 61.93359375 C161.86807472 63.18874535 161.86807472 63.18874535 160.58177185 64.46925354 C157.01199888 68.02279264 153.43629335 71.57034006 149.86108398 75.1184082 C147.23993606 77.72137863 144.62186442 80.32741584 142.00390625 82.93359375 C141.20578018 83.72342148 140.40765411 84.51324921 139.58534241 85.32701111 C136.18032656 88.71724537 132.84985614 92.11385774 129.73022461 95.76977539 C125.13471565 101.10669044 120.09733829 106.01354054 115.10287476 110.97229004 C113.27487821 112.78735566 111.45017044 114.60567301 109.6262207 116.42480469 C105.09843857 120.93931916 100.56519193 125.44833337 96.03210449 129.95751953 C92.19033661 133.77945616 88.35069298 137.60350376 84.51376343 141.43029785 C82.72844455 143.20920255 80.94010861 144.98503396 79.15161133 146.76074219 C74.07789625 151.81176827 69.08598375 156.88119425 64.43643188 162.33203125 C61.04028007 166.27560501 57.28795809 169.89798247 53.60961914 173.57568359 C52.16718144 175.02034996 50.73298435 176.47289854 49.29882812 177.92578125 C48.38939453 178.83714844 47.47996094 179.74851562 46.54296875 180.6875 C45.71821045 181.51636719 44.89345215 182.34523438 44.04370117 183.19921875 C42 185 42 185 40 185 C40 185.66 40 186.32 40 187 C39.34 187 38.68 187 38 187 C37.75072754 187.57524414 37.50145508 188.15048828 37.24462891 188.74316406 C35.82126077 191.32410072 34.18451214 193.04212237 32.0859375 195.109375 C31.32539063 195.86347656 30.56484375 196.61757813 29.78125 197.39453125 C28.9871875 198.17183594 28.193125 198.94914063 27.375 199.75 C26.57320313 200.54277344 25.77140625 201.33554687 24.9453125 202.15234375 C22.96797154 204.10614493 20.98611091 206.05512103 19 208 C16.73859845 204.34252971 16.46801132 200.63096002 16.11410522 196.44474792 C16.04297598 195.68012232 15.97184675 194.91549671 15.89856207 194.12770063 C15.6620912 191.56388543 15.43727174 188.99918301 15.21240234 186.43432617 C15.04530113 184.59596677 14.87750337 182.75767057 14.70906067 180.91943359 C14.25327211 175.92155058 13.80776232 170.9227996 13.36441755 165.92379928 C12.89834607 160.68395956 12.42410494 155.44485842 11.95108032 150.2056427 C11.15694995 141.3951715 10.36949117 132.5841228 9.5859375 123.77270508 C8.6825345 113.61446387 7.76863675 103.45720903 6.84900892 93.30042475 C5.96287707 83.51077026 5.0843637 73.720446 4.20921707 63.92980385 C3.83768887 59.77488168 3.46353349 55.62020884 3.08720016 51.46571922 C2.64274819 46.55545044 2.20502363 41.64462483 1.77223778 36.73331451 C1.61328899 34.94140405 1.4521303 33.14968786 1.2884655 31.35820198 C0.33168003 20.86696831 -0.21671854 10.53878973 0 0 Z " fill="#F26939" transform="translate(330,157)"/>
<path d="M0 0 C5.50289288 3.9624643 10.55116158 8.21993787 15.5078125 12.8515625 C17.98073253 15.07367464 17.98073253 15.07367464 20.88671875 16.91796875 C24.40540371 19.27111691 27.50992033 21.90177433 30.6875 24.6875 C34.91234074 28.35199344 39.15430464 31.97837724 43.5 35.5 C47.7279248 38.93208013 51.8752789 42.44551171 56 46 C61.01314773 50.31934272 66.08537515 54.55097277 71.22265625 58.72265625 C74.34396367 61.28204054 77.4245003 63.88593791 80.5 66.5 C84.46903543 69.87283589 88.46017021 73.21176645 92.5 76.5 C97.1045358 80.24787798 101.64019191 84.06983444 106.1640625 87.9140625 C109.5805954 90.81244823 113.02504838 93.671551 116.5 96.5 C120.53983519 99.78823795 124.53081733 103.12733178 128.5 106.5 C138.16799722 114.86655746 138.16799722 114.86655746 148.30859375 122.625 C149.14583984 123.305625 149.14583984 123.305625 150 124 C150 124.66 150 125.32 150 126 C111.4524273 144.8186153 111.4524273 144.8186153 96.5168457 151.92919922 C87.48800384 156.2321033 78.49240573 160.6029404 69.49526978 164.97161865 C58.92353858 170.10440879 48.34002414 175.21136593 37.73876953 180.28295898 C36.8001709 180.73227783 35.86157227 181.18159668 34.89453125 181.64453125 C34.03553223 182.05396973 33.1765332 182.4634082 32.29150391 182.88525391 C30.36459733 183.82263462 28.46559322 184.81706724 26.57421875 185.82421875 C24 187 24 187 20 187 C17.53599 164.83348733 15.075751 142.66655897 12.61993504 120.49913692 C11.47943427 110.20520033 10.33772472 99.91140054 9.19311523 89.61791992 C8.19485715 80.64055 7.19892235 71.66292583 6.20571464 62.68499571 C5.68030345 57.93635884 5.15377179 53.18785256 4.62445259 48.43964958 C4.12503037 43.95929984 3.62874395 39.47861325 3.13473511 34.9976635 C2.95407861 33.3638666 2.77233206 31.73018975 2.5893383 30.09665298 C1.46717832 20.07244443 0.57959685 10.07145484 0 0 Z " fill="#F26A39" transform="translate(682,224)"/>
<path d="M0 0 C1.25541218 0.00128403 1.25541218 0.00128403 2.53618622 0.00259399 C12.85748029 0.01393906 23.17873869 0.03394781 33.5 0.0625 C37.35020924 31.67929632 40.90011618 63.32693913 44.37646484 94.98681641 C45.03858721 101.01682285 45.70303622 107.04656818 46.36882472 113.0761708 C47.02116779 118.98459055 47.67169897 124.89320874 48.32144928 130.80191422 C48.59369078 133.27611377 48.86638042 135.75026407 49.13954926 138.22436142 C49.51873987 141.66096163 49.89586684 145.09778239 50.27246094 148.53466797 C50.38257004 149.52892792 50.49267914 150.52318787 50.60612488 151.5475769 C51.35151863 158.37760378 51.95819307 165.21340521 52.5 172.0625 C48.76676074 170.81808691 47.90139836 169.33562032 45.5 166.25 C42.13921522 162.03265156 38.67987012 158.00292037 35 154.0625 C30.72995397 149.47574412 26.74235242 144.72799516 22.8125 139.84375 C20.3002899 136.82230812 17.67599173 133.93808227 15 131.0625 C10.73081848 126.47489887 6.74241483 121.72807272 2.8125 116.84375 C0.30028867 113.82230664 -2.32402457 110.93809922 -5 108.0625 C-9.2895776 103.45248361 -13.30410897 98.68466764 -17.25390625 93.77734375 C-19.5883059 90.95576505 -22.01990598 88.25659288 -24.5 85.5625 C-28.52097409 81.18945905 -32.30189519 76.68150842 -36.03515625 72.0625 C-40.50752142 66.61911418 -45.1632645 61.33345154 -49.79296875 56.02392578 C-51.50197532 54.06023031 -53.20509749 52.09159541 -54.90625 50.12109375 C-59.63979524 44.63985727 -64.37542615 39.16945356 -69.25 33.8125 C-73.08751458 29.58211373 -76.69535539 25.19448909 -80.28125 20.75 C-83.09651831 17.3399567 -86.05952586 14.08117876 -89.06640625 10.83984375 C-90.5 9.0625 -90.5 9.0625 -90.5 7.0625 C-91.16 7.0625 -91.82 7.0625 -92.5 7.0625 C-93.88938077 5.10102126 -95.2260411 3.10083424 -96.5 1.0625 C-64.32935102 0.3179374 -32.17833043 -0.03314791 0 0 Z " fill="#F5853C" transform="translate(629.5,204.9375)"/>
<path d="M0 0 C2.2977984 0.78520933 3.85906343 1.76678111 5.81005859 3.20703125 C6.51646484 3.72330078 7.22287109 4.23957031 7.95068359 4.77148438 C8.70607422 5.33287109 9.46146484 5.89425781 10.23974609 6.47265625 C11.86723033 7.66552822 13.4948379 8.85823194 15.12255859 10.05078125 C15.95303711 10.66244141 16.78351563 11.27410156 17.63916016 11.90429688 C21.44698865 14.70121075 25.28123516 17.4611109 29.11474609 20.22265625 C30.61097296 21.30320112 32.10706621 22.38393102 33.60302734 23.46484375 C36.64101028 25.65905249 39.68019603 27.85158164 42.72021484 30.04296875 C46.45952136 32.73855413 50.19418308 35.44049442 53.92773438 38.14404297 C56.14012784 39.74097712 58.3594272 41.3279529 60.57958984 42.9140625 C61.96646833 43.91253857 63.35319433 44.91122651 64.73974609 45.91015625 C65.38580811 46.36793457 66.03187012 46.82571289 66.69750977 47.29736328 C68.20665514 48.39011368 69.66670995 49.55013141 71.11474609 50.72265625 C71.11474609 51.38265625 71.11474609 52.04265625 71.11474609 52.72265625 C70.17040207 53.04013321 69.22605804 53.35761017 68.25309753 53.68470764 C49.48365373 59.99546791 30.71638983 66.31275155 11.95484352 72.64695549 C10.11155582 73.26911616 8.26814504 73.8909123 6.42459679 74.51230049 C-9.38351177 79.84127084 -25.13776525 85.31801876 -40.87492466 90.85261726 C-57.79864506 96.80021075 -74.80253907 102.51940367 -91.79458618 108.26803589 C-95.5092767 109.52476522 -99.2232534 110.7835695 -102.93661499 112.04421997 C-107.33037894 113.53560663 -111.72569419 115.02232762 -116.12225914 116.50543594 C-117.76894068 117.06167214 -119.41510724 117.61943535 -121.06073952 118.17876816 C-123.33350819 118.95085172 -125.60811866 119.71724069 -127.88330078 120.48217773 C-128.55312831 120.71112008 -129.22295584 120.94006243 -129.91308117 121.17594242 C-132.7120934 122.11106251 -134.90949361 122.72265625 -137.88525391 122.72265625 C-127.41314396 113.15530581 -127.41314396 113.15530581 -123.01025391 109.34765625 C-118.80863748 105.6993391 -114.74256416 101.90886601 -110.66308594 98.12548828 C-107.17471847 94.89604284 -103.63799946 91.73774139 -100.04150391 88.62890625 C-97.11285028 86.03980667 -94.25127213 83.38070944 -91.38525391 80.72265625 C-87.92238344 77.51105983 -84.45877077 74.31162845 -80.88525391 71.22265625 C-77.3573473 68.17109146 -73.93205307 65.01688232 -70.51025391 61.84765625 C-69.39051584 60.81244202 -68.27072452 59.77728539 -67.15087891 58.7421875 C-65.55665896 57.26861376 -63.96283104 55.79465284 -62.37158203 54.31787109 C-61.00544901 53.05229807 -59.63302305 51.79352797 -58.26025391 50.53515625 C-57.09623047 49.46201172 -57.09623047 49.46201172 -55.90869141 48.3671875 C-53.88525391 46.72265625 -53.88525391 46.72265625 -50.88525391 45.72265625 C-50.88525391 45.06265625 -50.88525391 44.40265625 -50.88525391 43.72265625 C-50.22525391 43.72265625 -49.56525391 43.72265625 -48.88525391 43.72265625 C-48.88525391 43.06265625 -48.88525391 42.40265625 -48.88525391 41.72265625 C-47.62744141 40.453125 -47.62744141 40.453125 -45.76025391 38.91015625 C-41.69232951 35.45748733 -37.78054229 31.86675266 -33.88525391 28.22265625 C-29.6573723 24.27700307 -25.40449785 20.38348021 -21.02197266 16.609375 C-17.43463967 13.44176654 -13.94486603 10.16682263 -10.45141602 6.89624023 C-2.62856657 -0.38669407 -2.62856657 -0.38669407 0 0 Z " fill="#F47D3B" transform="translate(239.88525390625,95.27734375)"/>
<path d="M0 0 C-1.16312671 1.19096751 -2.33076672 2.37752704 -3.5 3.5625 C-4.1496875 4.22378906 -4.799375 4.88507813 -5.46875 5.56640625 C-7.52692383 7.54517522 -9.6146432 9.42683911 -11.76953125 11.296875 C-16.01532755 14.98489797 -20.1083971 18.81694989 -24.1875 22.6875 C-29.30851839 27.52742568 -34.43905884 32.35464843 -39.625 37.125 C-44.22478383 41.35754707 -48.80688167 45.60828329 -53.375 49.875 C-54.00019531 50.45894531 -54.62539062 51.04289062 -55.26953125 51.64453125 C-57.17994373 53.42941355 -59.09003431 55.21463961 -61 57 C-68.67443796 64.17376107 -76.35468812 71.34024363 -84.08203125 78.45703125 C-88.28087984 82.32736357 -92.45467938 86.22396985 -96.625 90.125 C-103.91586153 96.93978436 -111.22509227 103.7308887 -118.76953125 110.265625 C-124.00417194 114.83494428 -128.99543322 119.65613951 -133.99609375 124.47851562 C-134.71410156 125.16236328 -135.43210937 125.84621094 -136.171875 126.55078125 C-136.8122168 127.16606689 -137.45255859 127.78135254 -138.11230469 128.4152832 C-139.99688165 129.99738215 -141.79179108 130.94289204 -144 132 C-145.42476481 122.36829994 -146.84224909 112.73556301 -148.25085354 103.10148621 C-148.90538591 98.62638296 -149.5622719 94.15165353 -150.22485352 89.67773438 C-150.86609371 85.34728453 -151.50073781 81.01591156 -152.13112068 76.68386841 C-152.37080921 75.04442997 -152.61273679 73.40531702 -152.85711479 71.76657104 C-154.43364178 61.18187296 -155.511403 50.69198743 -156 40 C-138.12396257 34.77037052 -120.13186474 29.9886324 -102.13127518 25.21111679 C-95.48098886 23.44602506 -88.83117416 21.67915721 -82.18158531 19.9114399 C-80.50310339 19.46523618 -78.82459717 19.01912387 -77.14606667 18.57310295 C-66.35789754 15.70573524 -55.57791323 12.81026776 -44.80813408 9.87458229 C-40.27465441 8.63962134 -35.73958647 7.41049655 -31.20498657 6.17965698 C-28.78655004 5.52091229 -26.36903663 4.85876866 -23.95248413 4.19314575 C-20.63852114 3.28049282 -17.32164422 2.37928335 -14.00390625 1.48046875 C-13.03774384 1.21070221 -12.07158142 0.94093567 -11.07614136 0.66299438 C-10.19451324 0.42640106 -9.31288513 0.18980774 -8.40454102 -0.05395508 C-7.26493675 -0.36650993 -7.26493675 -0.36650993 -6.10231018 -0.68537903 C-3.77196289 -1.03412687 -2.22474145 -0.7212287 0 0 Z " fill="#F16839" transform="translate(199,106)"/>
<path d="M0 0 C0.66 0.33 1.32 0.66 2 1 C-10.91121901 9.45672895 -23.86007168 17.85040837 -36.86889648 26.15625 C-43.26480726 30.24231931 -49.64248542 34.35446738 -56 38.5 C-64.61316177 44.11575339 -73.26926431 49.66280607 -81.93359375 55.19921875 C-87.80031722 58.94900875 -93.65914439 62.7100492 -99.5 66.5 C-107.57020128 71.73607704 -115.6759851 76.91607619 -123.78125 82.09765625 C-129.69829234 85.88197823 -135.60781618 89.67709502 -141.5 93.5 C-149.57022593 98.73603944 -157.67598475 103.91607597 -165.78125 109.09765625 C-171.69829234 112.88197823 -177.60781618 116.67709502 -183.5 120.5 C-191.57022593 125.73603944 -199.67598475 130.91607597 -207.78125 136.09765625 C-213.69829234 139.88197823 -219.60781618 143.67709502 -225.5 147.5 C-233.5657945 152.73316429 -241.66684471 157.91076672 -249.76806641 163.08886719 C-255.81639373 166.9566303 -261.85395534 170.83992207 -267.875 174.75 C-274.3334462 178.94163085 -280.83377206 183.06346933 -287.34863281 187.16674805 C-301.78685066 196.26840753 -316.15105745 205.48834412 -330.46923828 214.77758789 C-336.79600259 218.87804309 -343.14782641 222.9390533 -349.5 227 C-363.55722878 235.9884408 -377.55879825 245.06009285 -391.54663086 254.15600586 C-403.89749199 262.18639549 -403.89749199 262.18639549 -409.95532227 266.09082031 C-413.35045744 268.27923859 -416.73398463 270.4822105 -420.09765625 272.71875 C-421.06952881 273.35925293 -421.06952881 273.35925293 -422.06103516 274.01269531 C-423.28244964 274.81807244 -424.4998217 275.62962516 -425.71240234 276.44824219 C-427.10313039 277.36037285 -428.5476466 278.18958254 -430 279 C-430.66 278.67 -431.32 278.34 -432 278 C-420.47534542 269.40657668 -408.7053682 261.18813576 -396.88818359 253.00341797 C-384.23614981 244.22720586 -371.64977074 235.35653213 -359.07666016 226.46777344 C-355.55232484 223.97679014 -352.02605299 221.48855097 -348.5 219 C-347.08332432 218.00001278 -345.66665764 217.00001278 -344.25 216 C-301.75 186 -301.75 186 -299.62451172 184.49975586 C-298.20934631 183.50074861 -296.79430702 182.50156269 -295.37939453 181.50219727 C-291.81577673 178.98552034 -288.24995014 176.47208688 -284.6796875 173.96484375 C-277.96808955 169.24718865 -271.28517498 164.50099938 -264.6875 159.625 C-256.38722371 153.49457025 -247.91639289 147.61245956 -239.45166016 141.71240234 C-235.72959946 139.11266786 -232.02007456 136.49533588 -228.3125 133.875 C-227.6230127 133.38781494 -226.93352539 132.90062988 -226.22314453 132.39868164 C-224.84090269 131.42182597 -223.45874081 130.44485714 -222.07666016 129.46777344 C-218.55232484 126.97679014 -215.02605299 124.48855097 -211.5 122 C-210.08332432 121.00001278 -208.66665764 120.00001278 -207.25 119 C-164.75 89 -164.75 89 -162.62353516 87.49902344 C-161.21167908 86.50238095 -159.79989482 85.50563671 -158.38818359 84.50878906 C-154.77350731 81.95656554 -151.15747082 79.40630524 -147.5390625 76.859375 C-146.80679443 76.34342773 -146.07452637 75.82748047 -145.32006836 75.29589844 C-143.86602431 74.27187365 -142.41111913 73.24907043 -140.95532227 72.22753906 C-137.05027375 69.47979419 -133.22987099 66.65238258 -129.4375 63.75 C-122.7667513 58.8985464 -115.42013002 55.52161963 -108 52 C-106.19092321 51.13121345 -104.38235738 50.26136239 -102.57421875 49.390625 C-98.41778906 47.3907357 -94.25843611 45.39707143 -90.09765625 43.40625 C-82.21860549 39.6312666 -74.35927751 35.81593491 -66.5 32 C-55.6849777 26.75032888 -44.86602974 21.50938107 -34.01928711 16.32543945 C-28.657411 13.76233268 -23.30841291 11.17570752 -17.97265625 8.55859375 C-16.23918945 7.71312988 -16.23918945 7.71312988 -14.47070312 6.85058594 C-12.24101195 5.76257331 -10.01430867 4.66841062 -7.79101562 3.56738281 C-6.79908203 3.08495117 -5.80714844 2.60251953 -4.78515625 2.10546875 C-3.90738525 1.67387451 -3.02961426 1.24228027 -2.12524414 0.79760742 C-1.42391357 0.53439697 -0.72258301 0.27118652 0 0 Z " fill="#F17F3B" transform="translate(826,374)"/>
<path d="M0 0 C0.53625 0.680625 1.0725 1.36125 1.625 2.0625 C4.35104102 5.43418231 7.16700694 8.71821596 10 12 C20 23.58415842 20 23.58415842 20 26 C20.66 26 21.32 26 22 26 C22.66 27.65 23.32 29.3 24 31 C24.66 31 25.32 31 26 31 C27.66303921 32.94329212 29.21248835 34.8976763 30.75 36.9375 C35.0629228 42.54893719 39.47862164 48.05514559 44 53.5 C48.69371384 59.16533038 53.2979068 64.88573782 57.81640625 70.69140625 C61.464851 75.36099005 65.22013828 79.93640885 69 84.5 C73.23639836 89.61478765 77.4208122 94.75889844 81.5 100 C86.23070438 106.07716954 91.10787054 112.02531858 96.01513672 117.96044922 C99.69113866 122.40714398 103.34043346 126.87101487 106.921875 131.39453125 C108.62547306 133.53043333 110.34656986 135.64857241 112.078125 137.76171875 C112.89385986 138.76404541 112.89385986 138.76404541 113.72607422 139.78662109 C114.80100766 141.10728999 115.88055238 142.42422304 116.96533203 143.73681641 C119.63166496 147.02642533 121.7032049 149.8986902 123 154 C117.41963296 149.89252836 112.01637996 145.61516331 106.6875 141.1875 C105.18890963 139.94778665 103.69021177 138.70820323 102.19140625 137.46875 C101.47227051 136.87320313 100.75313477 136.27765625 100.01220703 135.6640625 C95.69057241 132.09014093 91.34300126 128.54789795 87 125 C85.16654964 123.50014304 83.33321829 122.0001406 81.5 120.5 C80.5925 119.7575 79.685 119.015 78.75 118.25 C61.33333333 104 43.91666667 89.75 26.5 75.5 C25.59507812 74.76007813 24.69015625 74.02015625 23.7578125 73.2578125 C21.89658472 71.73403112 20.0372517 70.20793284 18.1796875 68.6796875 C13.06033472 64.472977 7.90694331 60.35488095 2.58203125 56.41015625 C2.05996094 55.94480469 1.53789063 55.47945312 1 55 C1 54.34 1 53.68 1 53 C0.15695312 52.61714844 0.15695312 52.61714844 -0.703125 52.2265625 C-3.29386482 50.84307219 -5.45107845 49.20061417 -7.75 47.375 C-8.54921875 46.74335938 -9.3484375 46.11171875 -10.171875 45.4609375 C-10.77515625 44.97882813 -11.3784375 44.49671875 -12 44 C-10.52853028 35.57249159 -8.16477055 27.4872577 -5.6953125 19.3125 C-4.5068392 15.35982477 -3.34886608 11.39820646 -2.1875 7.4375 C-1.76445779 5.99865825 -1.34129352 4.55985239 -0.91796875 3.12109375 C-0.61503906 2.09113281 -0.31210937 1.06117188 0 0 Z " fill="#EF6839" transform="translate(690,155)"/>
<path d="M0 0 C-1.60361156 1.85318025 -3.21750914 3.69209183 -4.859375 5.51171875 C-7.0530767 7.9811137 -7.0530767 7.9811137 -8.953125 10.76953125 C-14.10941902 17.54875953 -18.39987236 19.93086721 -26.50219727 21.97070312 C-27.42395783 22.21803444 -28.3457184 22.46536575 -29.29541111 22.72019196 C-31.23143636 23.23777605 -33.16952921 23.74768225 -35.10951614 24.25021362 C-37.86205824 24.96421815 -40.60770635 25.69964911 -43.35202026 26.44458008 C-48.84239972 27.93216681 -54.34071324 29.38890757 -59.83984375 30.84375 C-61.86468074 31.38111246 -63.8894649 31.91867402 -65.91419983 32.4564209 C-71.18716429 33.85640782 -76.46071277 35.2541807 -81.73443604 36.65130615 C-90.16533277 38.88518292 -98.59536922 41.12230251 -107.02530098 43.3598175 C-109.92144028 44.12815414 -112.81786568 44.89540382 -115.71434021 45.66247559 C-116.62788049 45.90478157 -117.54142076 46.14708755 -118.48264408 46.39673615 C-120.28009281 46.87339431 -122.07777393 47.34917713 -123.87570095 47.82402802 C-128.6465207 49.08886574 -133.40480494 50.38953253 -138.15408325 51.7331543 C-139.66774774 52.15783115 -139.66774774 52.15783115 -141.21199131 52.59108734 C-143.15422605 53.1375145 -145.09453357 53.69085195 -147.03256893 54.25199127 C-148.336616 54.61760288 -148.336616 54.61760288 -149.66700745 54.99060059 C-150.81618574 55.31971561 -150.81618574 55.31971561 -151.98857975 55.65547943 C-154 56 -154 56 -157 55 C-116.42534216 40.30849652 -116.42534216 40.30849652 -97.78515625 33.6015625 C-96.78949646 33.24327866 -95.79383667 32.88499481 -94.76800537 32.51585388 C-89.70674623 30.69493408 -84.64494568 28.87553412 -79.58251953 27.05786133 C-68.39888457 23.0396998 -57.22638582 18.99267981 -46.06659889 14.90884018 C-42.0254001 13.43083304 -37.98279764 11.95666777 -33.94024563 10.48236656 C-30.00796896 9.04764652 -26.07826327 7.60614105 -22.15025616 6.15977573 C-19.14400678 5.05499989 -16.13421102 3.95995935 -13.125 2.86328125 C-12.02545486 2.45594254 -10.92590973 2.04860382 -9.79304504 1.62892151 C-8.7914183 1.26580368 -7.78979156 0.90268585 -6.7578125 0.52856445 C-5.8827002 0.20757278 -5.00758789 -0.11341888 -4.10595703 -0.44413757 C-2 -1 -2 -1 0 0 Z " fill="#F1863B" transform="translate(260,53)"/>
<path d="M0 0 C-0.33 1.32 -0.66 2.64 -1 4 C-2.11375 4.12375 -3.2275 4.2475 -4.375 4.375 C-8.03103677 4.6465813 -8.03103677 4.6465813 -10 7 C-12.02893704 7.22543745 -14.0581544 7.44932457 -16.08984375 7.6484375 C-18.50817063 8.09352834 -19.6044971 8.99396458 -21 11 C-21.495 10.01 -21.495 10.01 -22 9 C-22.66 9 -23.32 9 -24 9 C-24 9.66 -24 10.32 -24 11 C-23.01 11.99 -23.01 11.99 -22 13 C-22.66 13.99 -23.32 14.98 -24 16 C-26.625 16.1875 -26.625 16.1875 -29 16 C-28.34 15.01 -27.68 14.02 -27 13 C-27.99 11.515 -27.99 11.515 -29 10 C-29.33 11.32 -29.66 12.64 -30 14 C-30.99 14 -31.98 14 -33 14 C-33.66 15.98 -34.32 17.96 -35 20 C-37.97 20 -40.94 20 -44 20 C-44.33 20.66 -44.66 21.32 -45 22 C-45.495 20.02 -45.495 20.02 -46 18 C-42.18510326 16.53273202 -39.70988378 17.56663581 -36 19 C-36 17.35 -36 15.7 -36 14 C-39.41656024 13.83322718 -39.41656024 13.83322718 -43 14 C-43.66 14.66 -44.32 15.32 -45 16 C-52.16868395 18.49304625 -59.42897097 20.39431768 -67 21 C-67.495 22.485 -67.495 22.485 -68 24 C-70.92185504 25.92842433 -73.42583767 26.26020661 -76.875 26.4375 C-80.15730517 26.69989358 -81.91080541 26.95346369 -84.875 28.5 C-92.60373467 32.20979264 -102.57984731 31.14917593 -111 31 C-111.33 29.68 -111.66 28.36 -112 27 C-109.6875 25.4375 -109.6875 25.4375 -107 24 C-106.01 24.33 -105.02 24.66 -104 25 C-104.33 25.66 -104.66 26.32 -105 27 C-103.92028427 26.69761414 -102.84056854 26.39522827 -101.72813416 26.0836792 C-91.35711984 23.18661818 -80.96745177 20.3686323 -70.55807686 17.6128006 C-67.98896808 16.93262306 -65.42021978 16.25109795 -62.85154724 15.5692749 C-57.42217111 14.12836047 -51.99236121 12.68908524 -46.5625 11.25 C-40.21011417 9.56630722 -33.85791148 7.88192867 -27.50611687 6.19600677 C-24.97861483 5.52549592 -22.45081007 4.85613512 -19.92298889 4.18682861 C-18.38427301 3.77857844 -16.84557087 3.37027648 -15.30688477 2.96191406 C-14.60724106 2.77699905 -13.90759735 2.59208405 -13.18675232 2.40156555 C-3.76744793 -0.10182292 -3.76744793 -0.10182292 0 0 Z " fill="#23201F" transform="translate(204,83)"/>
<path d="M0 0 C1.36933182 0.00182785 1.36933182 0.00182785 2.7663269 0.00369263 C17.82642156 0.02697145 32.88102416 0.23962727 47.9375 0.5625 C49.39086761 0.59183624 49.39086761 0.59183624 50.87359619 0.62176514 C53.60469628 0.67845065 56.3355286 0.74213012 59.06640625 0.80859375 C60.28988014 0.8336776 60.28988014 0.8336776 61.53807068 0.85926819 C67.14414159 1.0095708 67.14414159 1.0095708 69.375 2.125 C71.23655918 2.2666245 73.10262745 2.35105317 74.96875 2.40625 C76.63744141 2.46232422 76.63744141 2.46232422 78.33984375 2.51953125 C80.08974609 2.57173828 80.08974609 2.57173828 81.875 2.625 C84.17721348 2.69368482 86.47931149 2.76639633 88.78125 2.84375 C89.80541016 2.87404297 90.82957031 2.90433594 91.88476562 2.93554688 C94.375 3.125 94.375 3.125 96.375 4.125 C96.375 4.785 96.375 5.445 96.375 6.125 C83.70706101 5.75197145 71.03914591 5.37814208 58.37125874 5.00335789 C52.4857167 4.82925566 46.60016749 4.65540441 40.71459961 4.48217773 C-9.98282793 2.98968134 -9.98282793 2.98968134 -33.625 2.125 C-33.625 1.795 -33.625 1.465 -33.625 1.125 C-22.39880748 0.11073811 -11.26252564 -0.03271954 0 0 Z " fill="#3F2B28" transform="translate(330.625,44.875)"/>
<path d="M0 0 C-0.56302958 3.94120709 -1.6791945 6.7508723 -4 10 C-4.66 10 -5.32 10 -6 10 C-6.66 11.32 -7.32 12.64 -8 14 C-8.66 14 -9.32 14 -10 14 C-10.28875 14.5775 -10.5775 15.155 -10.875 15.75 C-11.24625 16.4925 -11.6175 17.235 -12 18 C-12.33 18.70125 -12.66 19.4025 -13 20.125 C-14 22 -14 22 -16 24 C-17.32 24 -18.64 24 -20 24 C-20.33 24.66 -20.66 25.32 -21 26 C-21 25.34 -21 24.68 -21 24 C-21.66 24 -22.32 24 -23 24 C-23 23.34 -23 22.68 -23 22 C-21.49609375 20.5546875 -21.49609375 20.5546875 -19.4375 18.875 C-14.49082317 14.66988848 -10.41944307 9.93670331 -6.30078125 4.9375 C-5.76839844 4.298125 -5.23601562 3.65875 -4.6875 3 C-4.21699219 2.4225 -3.74648438 1.845 -3.26171875 1.25 C-2 0 -2 0 0 0 Z " fill="#20201F" transform="translate(264,50)"/>
<path d="M0 0 C3.92853486 -0.22448771 6.39425826 0.52345492 10 2 C11.68890702 2.50566276 13.38616697 2.98408278 15.08984375 3.4375 C16.03923828 3.69273438 16.98863281 3.94796875 17.96679688 4.2109375 C19.43729492 4.60152344 19.43729492 4.60152344 20.9375 5 C32.72321429 8.14285714 32.72321429 8.14285714 38 10 C38 10.66 38 11.32 38 12 C30.57484894 11.43301671 23.86520471 9.71371029 16.75 7.5625 C15.6878125 7.24990234 14.625625 6.93730469 13.53125 6.61523438 C8.92979421 5.2480933 4.4387944 3.83679438 0 2 C0 1.34 0 0.68 0 0 Z " fill="#262322" transform="translate(427,49)"/>
<path d="M0 0 C0.66 0.33 1.32 0.66 2 1 C0.63051742 4.28571345 -0.64801699 5.73009249 -3.7109375 7.515625 C-4.82879639 8.180177 -4.82879639 8.180177 -5.96923828 8.8581543 C-6.76313965 9.31746338 -7.55704102 9.77677246 -8.375 10.25 C-10.00637516 11.2180885 -11.63657999 12.18815182 -13.265625 13.16015625 C-14.06806641 13.63727051 -14.87050781 14.11438477 -15.69726562 14.60595703 C-20.57993665 17.56185732 -25.29045096 20.77719095 -30 24 C-30.66 23.67 -31.32 23.34 -32 23 C-21.43418299 15.18713968 -10.75837007 7.545344 0 0 Z " fill="#CD4233" transform="translate(426,629)"/>
<path d="M0 0 C0.66 0.33 1.32 0.66 2 1 C2.33 1.99 2.66 2.98 3 4 C2.67 4.33 2.34 4.66 2 5 C2.99 5.66 3.98 6.32 5 7 C0.545 7.495 0.545 7.495 -4 8 C-4 8.66 -4 9.32 -4 10 C-4.66 9.67 -5.32 9.34 -6 9 C-5.6875 6.625 -5.6875 6.625 -5 4 C-4.01 3.34 -3.02 2.68 -2 2 C-1.67 2.33 -1.34 2.66 -1 3 C-0.67 2.01 -0.34 1.02 0 0 Z " fill="#373737" transform="translate(175,93)"/>
<path d="M0 0 C0.66 0.33 1.32 0.66 2 1 C3.41904116 5.54093172 3.09226843 10.2943099 3 15 C2.34 15 1.68 15 1 15 C-0.42705634 9.69276568 -1.4002792 5.46108889 0 0 Z " fill="#1F1D1D" transform="translate(45,177)"/>
<path d="M0 0 C0 0.66 0 1.32 0 2 C-2.93479598 2.86458312 -5.87221519 3.71697187 -8.8125 4.5625 C-10.06256836 4.9327832 -10.06256836 4.9327832 -11.33789062 5.31054688 C-12.14033203 5.53935547 -12.94277344 5.76816406 -13.76953125 6.00390625 C-14.50792236 6.21861572 -15.24631348 6.4333252 -16.00708008 6.65454102 C-18 7 -18 7 -21 6 C-17.87959957 4.80015399 -14.75304469 3.61725823 -11.625 2.4375 C-10.73554687 2.09525391 -9.84609375 1.75300781 -8.9296875 1.40039062 C-7.65351562 0.92182617 -7.65351562 0.92182617 -6.3515625 0.43359375 C-5.17327881 -0.01415405 -5.17327881 -0.01415405 -3.97119141 -0.47094727 C-2 -1 -2 -1 0 0 Z " fill="#DA4A35" transform="translate(124,102)"/>
<path d="M0 0 C3.95963389 1.27273947 5.37729554 3.68299713 7.25 7.1796875 C8.21958411 9.53294894 8.3045585 11.48739234 8 14 C7.34 13.67 6.68 13.34 6 13 C6 12.01 6 11.02 6 10 C5.34 10 4.68 10 4 10 C4 9.01 4 8.02 4 7 C3.34 7 2.68 7 2 7 C0.5393715 4.35261084 0 3.10551666 0 0 Z " fill="#201D1B" transform="translate(238,558)"/>
<path d="M0 0 C3.9053137 -0.22316078 6.42711007 0.48152178 10 2 C11.65919896 2.36871088 13.3247643 2.71281674 15 3 C12 5 12 5 8.625 4.75 C5.51359378 4.10626078 2.88077146 3.30944157 0 2 C0 1.34 0 0.68 0 0 Z " fill="#201F1F" transform="translate(427,49)"/>
<path d="M0 0 C0.66 0.33 1.32 0.66 2 1 C-2.62 3.97 -7.24 6.94 -12 10 C-12.33 9.34 -12.66 8.68 -13 8 C-10.61664713 5.32561064 -8.12963852 3.84841988 -4.9375 2.25 C-4.05964844 1.80140625 -3.18179688 1.3528125 -2.27734375 0.890625 C-1.52582031 0.59671875 -0.77429688 0.3028125 0 0 Z " fill="#DF9B3C" transform="translate(826,374)"/>
<path d="M0 0 C0.66 0.33 1.32 0.66 2 1 C0.54875366 4.82601307 -1.35774704 6.22329124 -5 8 C-5.99 8 -6.98 8 -8 8 C-6.88333826 4.65001479 -6.25305075 4.20659778 -3.4375 2.3125 C-2.79683594 1.87550781 -2.15617187 1.43851563 -1.49609375 0.98828125 C-1.00238281 0.66214844 -0.50867188 0.33601562 0 0 Z " fill="#DA4834" transform="translate(426,629)"/>
<path d="M0 0 C0.66 0.33 1.32 0.66 2 1 C1.34 2.98 0.68 4.96 0 7 C-2.97 7 -5.94 7 -9 7 C-9.33 7.66 -9.66 8.32 -10 9 C-10.33 7.68 -10.66 6.36 -11 5 C-7.18510326 3.53273202 -4.70988378 4.56663581 -1 6 C-1.020625 5.195625 -1.04125 4.39125 -1.0625 3.5625 C-1 1 -1 1 0 0 Z " fill="#020202" transform="translate(169,96)"/>
<path d="M0 0 C0.33 0.99 0.66 1.98 1 3 C1.61875 3.309375 2.2375 3.61875 2.875 3.9375 C5.46114754 5.23057377 6.56415503 6.506164 8 9 C7.67 9.99 7.34 10.98 7 12 C4.35247996 9.42215154 2.05567935 7.08351902 0 4 C0 2.68 0 1.36 0 0 Z " fill="#322D2A" transform="translate(740,213)"/>
<path d="M0 0 C0 0.33 0 0.66 0 1 C-1.1446875 1.185625 -1.1446875 1.185625 -2.3125 1.375 C-5.20267136 1.88102792 -5.20267136 1.88102792 -8 4 C-9.65583225 4.69313908 -11.32110979 5.36474424 -13 6 C-13.33 5.01 -13.66 4.02 -14 3 C-9.43672206 -0.53286034 -5.50366792 -0.32374517 0 0 Z " fill="#020202" transform="translate(199,91)"/>
<path d="M0 0 C-2.51830747 3.12270126 -3.7261549 3.94523098 -7.75 4.75 C-9.35875 4.87375 -9.35875 4.87375 -11 5 C-11 4.01 -11 3.02 -11 2 C-9.54494642 1.47007308 -8.08581873 0.9513211 -6.625 0.4375 C-5.81289062 0.14746094 -5.00078125 -0.14257812 -4.1640625 -0.44140625 C-2 -1 -2 -1 0 0 Z " fill="#211E1D" transform="translate(148,90)"/>
<path d="M0 0 C3.3 0.33 6.6 0.66 10 1 C10.33 1.99 10.66 2.98 11 4 C3.375 3.125 3.375 3.125 0 2 C0 1.34 0 0.68 0 0 Z " fill="#252525" transform="translate(495,68)"/>
<path d="M0 0 C0 0.99 0 1.98 0 3 C-0.99 3 -1.98 3 -3 3 C-3 3.66 -3 4.32 -3 5 C-4.98 5.66 -6.96 6.32 -9 7 C-7.4576387 2.93377477 -4.5679954 0 0 0 Z " fill="#302B29" transform="translate(636,499)"/>
<path d="M0 0 C0.66 0.33 1.32 0.66 2 1 C1.67 1.99 1.34 2.98 1 4 C-0.32303717 4.3721042 -1.65737935 4.70630173 -3 5 C-3.33 5.66 -3.66 6.32 -4 7 C-4.66 6.67 -5.32 6.34 -6 6 C-6 5.34 -6 4.68 -6 4 C-4.03852126 2.61061923 -2.03833424 1.2739589 0 0 Z " fill="#2D2926" transform="translate(713,448)"/>
<path d="M0 0 C1.32 0.33 2.64 0.66 4 1 C1.69 2.65 -0.62 4.3 -3 6 C-3.66 5.34 -4.32 4.68 -5 4 C-2.75 1.9375 -2.75 1.9375 0 0 Z " fill="#201F1D" transform="translate(737,433)"/>
<path d="M0 0 C0.99 0.33 1.98 0.66 3 1 C2.67 1.99 2.34 2.98 2 4 C-0.64 4.33 -3.28 4.66 -6 5 C-5.195625 4.360625 -4.39125 3.72125 -3.5625 3.0625 C-1.7249496 1.59396498 -1.7249496 1.59396498 0 0 Z " fill="#2F2B28" transform="translate(744,428)"/>
<path d="M0 0 C-2.68841859 2.25245881 -4.64641875 3.88213958 -8 5 C-7.625 2.5625 -7.625 2.5625 -7 0 C-4.3333581 -1.33332095 -2.83319697 -0.67102033 0 0 Z " fill="#1F1E1D" transform="translate(779,410)"/>
<path d="M0 0 C0.99 0.33 1.98 0.66 3 1 C1.73134318 3.53731364 0.50290879 3.78646846 -2 5 C-2.66 5.66 -3.32 6.32 -4 7 C-4.33 5.68 -4.66 4.36 -5 3 C-2.6875 1.4375 -2.6875 1.4375 0 0 Z " fill="#181818" transform="translate(97,107)"/>
<path d="M0 0 C-0.99 1.485 -0.99 1.485 -2 3 C-5.625 3.6875 -5.625 3.6875 -9 4 C-8.67 3.34 -8.34 2.68 -8 2 C-7.34 2 -6.68 2 -6 2 C-6 1.34 -6 0.68 -6 0 C-2.25 -1.125 -2.25 -1.125 0 0 Z " fill="#24221F" transform="translate(241,57)"/>
<path d="M0 0 C2.97 0.33 5.94 0.66 9 1 C9.33 1.99 9.66 2.98 10 4 C6.7 3.34 3.4 2.68 0 2 C0 1.34 0 0.68 0 0 Z " fill="#2B2929" transform="translate(439,53)"/>
<path d="M0 0 C0.66 0.33 1.32 0.66 2 1 C1.67 1.99 1.34 2.98 1 4 C-0.98 4.33 -2.96 4.66 -5 5 C-4 2 -4 2 -2.0625 0.75 C-1.381875 0.5025 -0.70125 0.255 0 0 Z " fill="#383430" transform="translate(819,355)"/>
<path d="M0 0 C3.96 1.98 3.96 1.98 8 4 C7.67 4.66 7.34 5.32 7 6 C4.0625 5.25 4.0625 5.25 1 4 C0.67 2.68 0.34 1.36 0 0 Z " fill="#202020" transform="translate(621,111)"/>
<path d="M0 0 C2.31 0.33 4.62 0.66 7 1 C6.01 1.495 6.01 1.495 5 2 C5.33 2.99 5.66 3.98 6 5 C5.01 5 4.02 5 3 5 C3 4.34 3 3.68 3 3 C1.35 3 -0.3 3 -2 3 C-1.34 2.67 -0.68 2.34 0 2 C0 1.34 0 0.68 0 0 Z " fill="#373737" transform="translate(180,92)"/>
<path d="M0 0 C0.33 0.66 0.66 1.32 1 2 C1.66 2 2.32 2 3 2 C3 2.66 3 3.32 3 4 C2.34 4 1.68 4 1 4 C0.67 4.66 0.34 5.32 0 6 C-0.66 5.67 -1.32 5.34 -2 5 C-2 3.68 -2 2.36 -2 1 C-1.34 0.67 -0.68 0.34 0 0 Z " fill="#2D2D2D" transform="translate(370,656)"/>
<path d="M0 0 C3.24208567 0.35049575 4.61527704 0.56221181 6.8125 3.0625 C7.204375 3.701875 7.59625 4.34125 8 5 C2.25 4.125 2.25 4.125 0 3 C0 2.01 0 1.02 0 0 Z " fill="#3F3028" transform="translate(465,59)"/>
<path d="M0 0 C1.65 0.33 3.3 0.66 5 1 C4.34 2.32 3.68 3.64 3 5 C1.68 5 0.36 5 -1 5 C-0.67 3.35 -0.34 1.7 0 0 Z " fill="#2E2E2E" transform="translate(539,539)"/>
<path d="M0 0 C0.66 0.33 1.32 0.66 2 1 C1.67 1.99 1.34 2.98 1 4 C-0.65 4.33 -2.3 4.66 -4 5 C-3 2 -3 2 0 0 Z " fill="#302D2A" transform="translate(780,405)"/>
<path d="M0 0 C1.98 0 3.96 0 6 0 C6.33 0.99 6.66 1.98 7 3 C4.69 2.67 2.38 2.34 0 2 C0 1.34 0 0.68 0 0 Z " fill="#302B27" transform="translate(572,89)"/>
<path d="M0 0 C1.98 0 3.96 0 6 0 C6.33 0.99 6.66 1.98 7 3 C4.69 2.67 2.38 2.34 0 2 C0 1.34 0 0.68 0 0 Z " fill="#312B27" transform="translate(550,83)"/>
</svg>
